<?xml version="1.0" encoding="UTF-8"?>
<svg xmlns="http://www.w3.org/2000/svg" width="33" height="32" viewBox="0 0 33 32" fill="none">
  <g id="add-ons">
    <path id="path" d="M17.5404 1.95952C17.1499 1.56899 16.5168 1.56899 16.1262 1.95952L11.0812 7.00456C10.7791 7.30664 10.7023 7.76726 10.89 8.15102C11.0777 8.53479 11.4884 8.75694 11.9123 8.70395C12.5662 8.62221 13.3408 8.87662 13.8439 9.37974C14.8949 10.4307 14.8949 11.9597 13.8439 13.0106C12.793 14.0615 11.264 14.0615 10.2131 13.0106C9.70999 12.5075 9.45558 11.7329 9.53732 11.0789C9.59031 10.655 9.36816 10.2443 8.9844 10.0566C8.60063 9.86891 8.14002 9.94573 7.83794 10.2478L2.79289 15.2929C2.40237 15.6834 2.40237 16.3165 2.79289 16.7071L16.1262 30.0404C16.5168 30.4309 17.1499 30.4309 17.5404 30.0404L30.8738 16.7071C31.0613 16.5195 31.1667 16.2652 31.1667 16C31.1667 15.7347 31.0613 15.4804 30.8738 15.2929L27.1795 11.5986C27.7726 11.3973 28.3424 11.0703 28.8317 10.5809C30.6637 8.74897 30.6637 5.95365 28.8317 4.12168C26.9998 2.28972 24.2044 2.28972 22.3725 4.12168C21.9058 4.58838 21.5513 5.14601 21.3266 5.74564L17.5404 1.95952Z" fill="#5B37D4"></path>
  </g>
</svg>
