<svg width="48" height="49" viewBox="0 0 48 49" fill="none" xmlns="http://www.w3.org/2000/svg">
<path fill-rule="evenodd" clip-rule="evenodd" d="M12.4905 2.81433C8.62746 2.81433 5.5 5.94857 5.5 9.82386C5.5 13.6046 8.48448 16.692 12.2515 16.8136L12.3175 16.8157C9.8782 16.8489 7.38325 17.4947 5.41517 18.8323L5.4116 18.8348C3.58884 20.0813 2.5 21.8668 2.5 23.822C2.5 25.7776 3.58942 27.559 5.41464 28.796C7.5032 30.2227 10.1947 30.8616 12.782 30.8116L15.1266 30.7663L14.1025 28.6568C13.3975 27.2047 13.0006 25.5704 13 23.8364C13.0098 22.0892 13.4178 20.4416 14.1365 18.9786L15.1738 16.867L12.8217 16.8175L12.6915 16.8154L12.7485 16.8136C16.5155 16.692 19.5 13.6046 19.5 9.82386C19.5 5.94518 16.3692 2.81433 12.4905 2.81433ZM12.5951 16.8145L12.5 16.801L12.4034 16.8148C12.4673 16.8143 12.5312 16.8142 12.5951 16.8145Z" fill="#5B37D4"/>
<path fill-rule="evenodd" clip-rule="evenodd" d="M24.0094 15.8143C19.5688 15.8143 16.0232 19.4068 16 23.8159L16 23.8238C16 28.1484 19.4113 31.6734 23.6963 31.8135L23.7791 31.8162C21.3553 31.8555 18.8747 32.5005 16.9152 33.8323L16.9116 33.8348C15.0888 35.0813 14 36.8668 14 38.822C14 40.7777 15.0894 42.559 16.9146 43.796C18.9292 45.1721 21.5034 45.8143 24 45.8143C26.4977 45.8143 29.0732 45.1715 31.0882 43.7941C32.9109 42.5475 34 40.7619 34 38.8067C34 36.8516 32.9113 35.0708 31.0871 33.8339C29.1351 32.4933 26.6488 31.8495 24.2171 31.8157L24.2846 31.8135C28.5931 31.6734 31.9769 28.1457 32 23.8318L32 23.8238C32 19.4041 28.4269 15.8143 24.0094 15.8143ZM24.147 31.8149L24.0493 31.8027C24.0287 31.8001 23.9781 31.7977 23.9114 31.8051L23.8165 31.8157C23.8827 31.8148 23.9488 31.8143 24.015 31.8143L24.147 31.8149Z" fill="#5B37D4"/>
<path fill-rule="evenodd" clip-rule="evenodd" d="M45.5 23.8067C45.5 21.8517 44.4113 20.0708 42.5873 18.834C40.6302 17.4898 38.1346 16.8451 35.691 16.8154L35.7485 16.8136C39.5155 16.692 42.5 13.6046 42.5 9.82386C42.5 5.94518 39.3692 2.81433 35.4905 2.81433C31.6275 2.81433 28.5 5.94857 28.5 9.82386C28.5 13.6046 31.4845 16.692 35.2515 16.8136L35.317 16.8157C35.2759 16.8162 35.2348 16.8169 35.1937 16.8179L32.8467 16.8695L33.8798 18.9776C34.596 20.4392 34.9994 22.0843 35 23.8284C34.9901 25.5654 34.5887 27.2019 33.8815 28.6552L32.8559 30.763L35.1994 30.8112C37.7939 30.8646 40.4944 30.2254 42.5882 28.794C44.4109 27.5475 45.5 25.7619 45.5 23.8067ZM35.4035 16.8148C35.4673 16.8143 35.5312 16.8142 35.5952 16.8146L35.5 16.801L35.4035 16.8148Z" fill="#5B37D4"/>
</svg>
