<svg width="48" height="49" viewBox="0 0 48 49" fill="none" xmlns="http://www.w3.org/2000/svg">
<path d="M23.99 2.10198C25.2063 2.09391 25.9826 2.99922 26.3769 3.77428L26.3816 3.78365L27.3618 5.74408L29.1026 6.03423L29.1048 6.03459C29.983 6.17907 31.0262 6.66426 31.3925 7.77858C31.7623 8.90382 31.1957 9.91134 30.5554 10.5404L29.1856 11.9101L29.5617 13.5579C29.761 14.4167 29.8201 15.7763 28.7303 16.5697C27.6443 17.3603 26.3703 16.8926 25.6167 16.4457L25.6142 16.4443L23.99 15.4878L22.3658 16.4443L22.3634 16.4457C21.6098 16.8926 20.3358 17.3604 19.2496 16.5697C18.1598 15.7762 18.219 14.4164 18.4183 13.5577L18.4191 13.5543L18.7944 11.9101L17.4393 10.5551C16.8209 9.93669 16.2307 8.93109 16.598 7.79718C16.9647 6.66507 18.0301 6.19504 18.8968 6.05426L20.6381 5.76409L21.6183 3.80361C22.0093 3.02168 22.777 2.11004 23.99 2.10198Z" fill="#5B37D4"/>
<path d="M23.9013 18.8143C22.5716 18.8143 21.4258 18.8142 20.5084 18.9376C19.5251 19.0697 18.5825 19.3679 17.8181 20.1324C17.0536 20.8969 16.7554 21.8394 16.6232 22.8227C16.4999 23.7401 16.5 24.8859 16.5 26.2156L16.5 42.3832C16.4999 42.7935 16.4997 43.2371 16.55 43.6115C16.609 44.0501 16.7607 44.6105 17.2323 45.0821C17.7039 45.5537 18.2642 45.7054 18.7029 45.7644C19.0773 45.8147 19.5208 45.8145 19.931 45.8144H28.0689C28.4791 45.8145 28.9228 45.8147 29.2972 45.7644C29.7358 45.7054 30.2962 45.5537 30.7678 45.0821C31.2394 44.6105 31.3911 44.0501 31.45 43.6115C31.5004 43.237 31.5002 42.7935 31.5001 42.3832L31.5 26.2156C31.5001 24.886 31.5002 23.7401 31.3768 22.8227C31.2446 21.8394 30.9465 20.8969 30.182 20.1324C29.4175 19.3679 28.475 19.0697 27.4917 18.9376C26.5743 18.8142 25.4286 18.8143 24.0989 18.8143H23.9013Z" fill="#5B37D4"/>
<path d="M37.8152 32.8144C37.4573 32.8142 37.0699 32.8141 36.7398 32.8531C36.3581 32.8982 35.8639 33.0127 35.4141 33.3818C35.2875 33.4857 35.1714 33.6018 35.0675 33.7284C34.6983 34.1782 34.5839 34.6725 34.5388 35.0541C34.4998 35.3842 34.4999 35.7716 34.5 36.1296L34.5 42.3833C34.4999 42.7935 34.4997 43.2371 34.55 43.6115C34.609 44.0502 34.7607 44.6105 35.2323 45.0821C35.7039 45.5537 36.2642 45.7054 36.7029 45.7644C37.0773 45.8147 37.5209 45.8145 37.9311 45.8144H41.5689C41.9791 45.8145 42.4228 45.8147 42.7972 45.7644C43.2358 45.7054 43.7962 45.5537 44.2678 45.0821C44.7394 44.6105 44.8911 44.0502 44.9501 43.6115C45.0004 43.2371 45.0002 42.7935 45.0001 42.3833L45 39.8537C45.0001 38.6941 45.0001 37.6945 44.9045 36.8857C44.8027 36.024 44.5747 35.186 43.9786 34.4596C43.7916 34.2317 43.5827 34.0228 43.3548 33.8358C42.6284 33.2397 41.7904 33.0117 40.9286 32.9099C40.1199 32.8143 39.1203 32.8143 37.9607 32.8144L37.8152 32.8144Z" fill="#5B37D4"/>
<path d="M11.2603 26.8531C11.6419 26.8982 12.1362 27.0127 12.586 27.3818C12.7126 27.4857 12.8287 27.6018 12.9326 27.7284C13.3017 28.1782 13.4162 28.6725 13.4613 29.0541C13.5003 29.3842 13.5002 29.7716 13.5 30.1296L13.5001 42.3832C13.5002 42.7935 13.5004 43.2371 13.45 43.6115C13.3911 44.0502 13.2394 44.6105 12.7678 45.0821C12.2962 45.5537 11.7358 45.7054 11.2972 45.7644C10.9228 45.8147 10.4791 45.8145 10.0689 45.8144H6.4311C6.02088 45.8145 5.57731 45.8147 5.20289 45.7644C4.76425 45.7054 4.20387 45.5537 3.73227 45.0821C3.26067 44.6105 3.109 44.0502 3.05002 43.6115C2.99968 43.2371 2.99986 42.7935 3.00002 42.3833L3.00003 33.8537C2.99998 32.6941 2.99993 31.6945 3.09553 30.8857C3.19739 30.024 3.42533 29.186 4.02149 28.4596C4.20848 28.2317 4.41741 28.0228 4.64527 27.8358C5.37169 27.2397 6.20969 27.0117 7.07142 26.9099C7.8802 26.8143 8.87982 26.8143 10.0394 26.8144L10.1848 26.8144C10.5428 26.8142 10.9302 26.8141 11.2603 26.8531Z" fill="#5B37D4"/>
</svg>
