<svg width="48" height="49" viewBox="0 0 48 49" fill="none" xmlns="http://www.w3.org/2000/svg">
<path fill-rule="evenodd" clip-rule="evenodd" d="M6.72009 20.1143C6.72009 9.27328 16.6886 0.781486 27.9194 3.22866L27.9241 3.22968C32.8685 4.32357 37.213 7.60395 39.483 12.1661C43.9301 21.1028 39.5285 30.4551 32.9601 34.876V36.3743L32.9612 36.3919C32.9711 36.5341 33.0367 37.4704 32.6326 38.2453C32.0652 39.3335 30.924 39.7943 29.5401 39.7943H18.5268C17.4053 39.8037 16.1085 39.6312 15.4456 38.5155C15.1505 38.0189 15.1028 37.5099 15.0917 37.1943C15.0858 37.0284 15.0895 36.8666 15.0929 36.7407L15.0948 36.6702C15.0978 36.5658 15.1001 36.4819 15.1001 36.3943V34.8961C10.4725 31.7868 6.72009 26.1884 6.72009 20.1143ZM25.3008 16.8423C25.7139 16.1243 25.4666 15.2073 24.7485 14.7942C24.0304 14.3811 23.1134 14.6283 22.7004 15.3464L20.5627 19.0622C20.1556 19.761 19.9447 20.732 20.4594 21.6225C20.9731 22.5114 21.9183 22.8144 22.7206 22.8144H24.3941L22.6973 25.7917C22.2872 26.5114 22.5381 27.4274 23.2579 27.8376C23.9776 28.2478 24.8936 27.9968 25.3038 27.2771L27.4201 23.5635C27.8176 22.8796 28.0445 21.9121 27.5344 21.0152C27.0198 20.1106 26.0612 19.8144 25.2606 19.8144H23.5911L25.3008 16.8423Z" fill="#5B37D4"/>
<path fill-rule="evenodd" clip-rule="evenodd" d="M30.5907 45.7574C26.2784 44.5334 21.7221 44.5334 17.4098 45.7574C16.6129 45.9836 15.7835 45.5209 15.5572 44.7239C15.331 43.927 15.7937 43.0976 16.5907 42.8714C21.4384 41.4954 26.5621 41.4954 31.4098 42.8714C32.2068 43.0976 32.6694 43.927 32.4432 44.7239C32.217 45.5209 31.3876 45.9836 30.5907 45.7574Z" fill="#5B37D4"/>
</svg>
