<?xml version="1.0" encoding="UTF-8"?>
<svg xmlns="http://www.w3.org/2000/svg" width="33" height="32" viewBox="0 0 33 32" fill="none">
  <path fill-rule="evenodd" clip-rule="evenodd" d="M4.97998 13.1996C4.97998 5.97222 11.6257 0.31103 19.1129 1.94248L19.116 1.94316C22.4122 2.67242 25.3086 4.85934 26.8219 7.90074C29.7866 13.8586 26.8522 20.0934 22.4733 23.0407V24.0396L22.474 24.0513C22.4807 24.1461 22.5244 24.7703 22.255 25.2869C21.8767 26.0124 21.1159 26.3196 20.1933 26.3196H12.8511C12.1035 26.3258 11.2389 26.2108 10.797 25.467C10.6003 25.136 10.5685 24.7967 10.561 24.5862C10.5571 24.4756 10.5596 24.3678 10.5619 24.2839L10.5631 24.2369C10.5651 24.1673 10.5666 24.1113 10.5666 24.0529V23.0541C7.48161 20.9812 4.97998 17.249 4.97998 13.1996ZM17.3671 11.0183C17.6425 10.5395 17.4777 9.92821 16.9989 9.65281C16.5202 9.37742 15.9089 9.54225 15.6335 10.021L14.2084 12.4982C13.937 12.964 13.7964 13.6113 14.1395 14.205C14.482 14.7976 15.1121 14.9996 15.647 14.9996H16.7626L15.6315 16.9845C15.358 17.4643 15.5253 18.075 16.0052 18.3484C16.485 18.6219 17.0957 18.4546 17.3691 17.9748L18.78 15.499C19.045 15.0431 19.1963 14.3981 18.8562 13.8002C18.5131 13.1971 17.8741 12.9996 17.3403 12.9996H16.2273L17.3671 11.0183Z" fill="#5B37D4"></path>
  <path fill-rule="evenodd" clip-rule="evenodd" d="M20.8937 30.2949C18.0189 29.4789 14.9813 29.4789 12.1065 30.2949C11.5752 30.4457 11.0222 30.1373 10.8714 29.606C10.7206 29.0747 11.0291 28.5217 11.5604 28.3709C14.7922 27.4536 18.208 27.4536 21.4398 28.3709C21.9711 28.5217 22.2796 29.0747 22.1287 29.606C21.9779 30.1373 21.425 30.4457 20.8937 30.2949Z" fill="#5B37D4"></path>
</svg>
