<?xml version="1.0" encoding="UTF-8"?>
<svg xmlns="http://www.w3.org/2000/svg" width="33" height="32" viewBox="0 0 33 32" fill="none">
  <path d="M16.2785 18.0226V16.2225H18.1266C18.5342 16.2225 18.9007 16.5344 18.9007 17.1226C18.9007 17.7108 18.5342 18.0226 18.1266 18.0226H16.2785Z" fill="#5B37D4"></path>
  <path d="M9.1674 14.4671V12.667H11.0155C11.4231 12.667 11.7896 12.9789 11.7896 13.567C11.7896 14.1552 11.4231 14.4671 11.0155 14.4671H10.5853C10.5728 14.4668 10.5603 14.4668 10.5478 14.4671H9.1674Z" fill="#5B37D4"></path>
  <path fill-rule="evenodd" clip-rule="evenodd" d="M25.5007 16.3337L25.5008 4.21928C25.5008 2.1405 22.9875 1.09944 21.5176 2.56936L19.2781 4.80886C19.1608 4.92616 18.9751 4.93935 18.8424 4.83982L15.2341 2.13366C14.4045 1.51144 13.2638 1.51144 12.4341 2.13366L8.82593 4.83982C8.69322 4.93935 8.50752 4.92616 8.39023 4.80886L6.15073 2.56936C4.68081 1.09945 2.16748 2.14049 2.16748 4.21928V24.0003C2.16748 25.8675 2.73156 27.4786 3.87704 28.6241C5.02252 29.7696 6.63364 30.3337 8.50081 30.3337H27.1673C28.009 30.3337 28.7067 30.1204 29.2637 29.749C29.8144 29.3819 30.1691 28.8995 30.395 28.4475C30.619 27.9994 30.726 27.5635 30.7786 27.248C30.8053 27.0879 30.819 26.9523 30.8261 26.8528C30.8296 26.8028 30.8316 26.7615 30.8326 26.7302L30.8336 26.6907L30.8338 20.7737C30.8338 19.5062 30.4284 18.3741 29.6109 17.5565C28.7934 16.739 27.6612 16.3337 26.3938 16.3337H25.5007ZM26.3938 18.3337H25.5007L25.5007 26.667C25.5007 26.9514 25.5942 27.4003 25.8455 27.7494C26.0601 28.0474 26.4266 28.3337 27.1673 28.3337C27.659 28.3337 27.9613 28.2136 28.1542 28.0849C28.3535 27.9521 28.4988 27.7678 28.6061 27.5531C28.7154 27.3345 28.775 27.1038 28.8058 26.9193C28.8208 26.8294 28.8279 26.7567 28.8312 26.7104C28.8328 26.6874 28.8335 26.6714 28.8337 26.6637L28.8338 26.6605V20.7737C28.8338 19.9344 28.5725 19.3466 28.1967 18.9708C27.8209 18.5949 27.233 18.3337 26.3938 18.3337ZM13.7896 13.567C13.7896 14.7032 13.1732 15.7737 12.1469 16.2324L13.3052 18.287C13.5764 18.7681 13.4063 19.378 12.9252 19.6492C12.4441 19.9204 11.8342 19.7503 11.563 19.2692L9.98324 16.4671H9.1674V18.7781C9.1674 19.3304 8.71968 19.7781 8.1674 19.7781C7.61511 19.7781 7.1674 19.3304 7.1674 18.7781V12.467C7.1674 11.4747 7.97512 10.667 8.96742 10.667H11.0155C12.7039 10.667 13.7896 12.0592 13.7896 13.567ZM18.1266 20.0226H16.2785V22.3337C16.2785 22.8859 15.8308 23.3337 15.2785 23.3337C14.7262 23.3337 14.2785 22.8859 14.2785 22.3337V16.0226C14.2785 15.0303 15.0862 14.2225 16.0785 14.2225H18.1266C19.815 14.2225 20.9007 15.6147 20.9007 17.1226C20.9007 18.6305 19.815 20.0226 18.1266 20.0226Z" fill="#5B37D4"></path>
  <path fill-rule="evenodd" clip-rule="evenodd" d="M9.1674 12.667V14.4671H10.5478C10.5603 14.4668 10.5728 14.4668 10.5853 14.4671H11.0155C11.4231 14.4671 11.7896 14.1552 11.7896 13.567C11.7896 12.9789 11.4231 12.667 11.0155 12.667H9.1674ZM16.2785 18.0226V16.2225H18.1266C18.5342 16.2225 18.9007 16.5344 18.9007 17.1226C18.9007 17.7108 18.5342 18.0226 18.1266 18.0226H16.2785Z" fill="#5B37D4"></path>
</svg>
