<?xml version="1.0" encoding="UTF-8"?>
<svg xmlns="http://www.w3.org/2000/svg" width="32" height="32" viewBox="0 0 32 32" fill="none">
  <path d="M12.0007 1.66699C8.16698 1.66699 5.08073 4.76951 5.08073 8.58699C5.08073 12.3248 8.02686 15.3683 11.7405 15.4931C11.7819 15.4945 11.8233 15.4933 11.8646 15.4896C11.9542 15.4814 12.0503 15.4823 12.1146 15.4887C12.1588 15.4931 12.2032 15.4946 12.2477 15.4931C15.962 15.3682 18.9052 12.325 18.9207 8.59116L18.9207 8.58699C18.9207 4.76804 15.8197 1.66699 12.0007 1.66699Z" fill="#5B37D4"></path>
  <path d="M21.8807 4.33366C21.5046 4.33366 21.1604 4.54463 20.9897 4.8797C20.8192 5.21422 20.8506 5.61597 21.0706 5.92001L21.0761 5.92788C21.0827 5.93736 21.0942 5.95406 21.1099 5.97765C21.1412 6.02489 21.1891 6.09948 21.2482 6.19886C21.3667 6.39809 21.5283 6.69414 21.6907 7.06665C22.0178 7.81702 22.334 8.84484 22.334 10.0003C22.334 11.1343 21.9865 12.1482 21.622 12.8951C21.4413 13.2653 21.2613 13.56 21.129 13.7588C21.063 13.858 21.0095 13.9324 20.9744 13.9797C20.9569 14.0033 20.944 14.02 20.9366 14.0295L20.9309 14.0368C20.6754 14.3517 20.6352 14.7897 20.8295 15.1458C21.0238 15.5022 21.4143 15.7057 21.8178 15.6609C21.8692 15.6552 21.91 15.6568 21.93 15.6593C21.9835 15.666 22.0375 15.6683 22.0914 15.6663C25.1192 15.553 27.5474 13.0609 27.5474 10.0003C27.5474 6.87657 25.0215 4.33366 21.8807 4.33366Z" fill="#5B37D4"></path>
  <path d="M12.2303 16.5837C14.8012 16.5837 17.4229 17.2289 19.449 18.5821C21.2702 19.7942 22.3136 21.4934 22.3136 23.322C22.3136 25.1504 21.2704 26.8527 19.4499 28.0713C17.4176 29.4311 14.7924 30.0803 12.2203 30.0803C9.6486 30.0803 7.02401 29.4314 4.99186 28.0721C3.17049 26.8599 2.12695 25.1607 2.12695 23.332C2.12695 21.5036 3.17021 19.8013 4.99067 18.5827L4.99435 18.5802C7.03225 17.229 9.65904 16.5837 12.2303 16.5837Z" fill="#5B37D4"></path>
  <path d="M24.7139 17.6915C24.359 17.6115 23.9886 17.7306 23.7468 18.0025C23.5051 18.2744 23.4302 18.6564 23.551 18.9995L23.5523 19.0031L23.5582 19.0203L23.5826 19.0921C23.6041 19.156 23.6354 19.2506 23.6731 19.3696C23.7487 19.6082 23.8494 19.9424 23.9498 20.3232C24.1569 21.1094 24.337 22.003 24.334 22.6624C24.331 23.3233 24.142 24.2169 23.9268 25.0027C23.8226 25.3833 23.7183 25.7172 23.6403 25.9556C23.6013 26.0745 23.5691 26.1689 23.5469 26.2327L23.5217 26.3045L23.5156 26.3216L23.5142 26.3255C23.3904 26.6664 23.4608 27.0476 23.6982 27.3217C23.9357 27.5959 24.303 27.7199 24.6581 27.646C25.7411 27.4203 26.79 26.9796 27.6719 26.3037C28.926 25.3612 29.6274 24.048 29.6274 22.6603C29.6274 21.2723 28.9256 19.9587 27.6708 19.0162C26.7994 18.3517 25.7665 17.9286 24.7139 17.6915Z" fill="#5B37D4"></path>
</svg>
