<?xml version="1.0" encoding="UTF-8"?>
<svg xmlns="http://www.w3.org/2000/svg" width="33" height="32" viewBox="0 0 33 32" fill="none">
  <path d="M12.5001 1.66666C8.66637 1.66666 5.58012 4.76917 5.58012 8.58666C5.58012 12.3245 8.52625 15.3679 12.2399 15.4928C12.2813 15.4942 12.3227 15.493 12.364 15.4892C12.4536 15.4811 12.5497 15.4819 12.6139 15.4884C12.6582 15.4928 12.7026 15.4943 12.747 15.4928C16.4614 15.3679 19.4046 12.3247 19.4201 8.59082L19.4201 8.58666C19.4201 4.76771 16.3191 1.66666 12.5001 1.66666Z" fill="white"></path>
  <path d="M22.3801 4.33332C22.004 4.33332 21.6598 4.54429 21.4891 4.87936C21.3186 5.21389 21.3499 5.61564 21.57 5.91968L21.5755 5.92754C21.5821 5.93702 21.5936 5.95372 21.6092 5.97732C21.6406 6.02455 21.6885 6.09914 21.7476 6.19852C21.866 6.39776 22.0277 6.6938 22.1901 7.06631C22.5172 7.81668 22.8334 8.8445 22.8334 9.99999C22.8334 11.1339 22.4859 12.1478 22.1214 12.8948C21.9407 13.265 21.7607 13.5597 21.6284 13.7585C21.5624 13.8576 21.5089 13.9321 21.4738 13.9793C21.4563 14.0029 21.4434 14.0196 21.436 14.0291L21.4303 14.0365C21.1747 14.3513 21.1346 14.7894 21.3288 15.1455C21.5232 15.5019 21.9137 15.7054 22.3172 15.6605C22.3686 15.6548 22.4094 15.6564 22.4294 15.6589C22.4829 15.6656 22.5369 15.668 22.5908 15.666C25.6186 15.5526 28.0467 13.0606 28.0467 9.99999C28.0467 6.87623 25.5209 4.33332 22.3801 4.33332Z" fill="white"></path>
  <path d="M12.7297 16.5833C15.3006 16.5833 17.9223 17.2285 19.9484 18.5817C21.7696 19.7939 22.813 21.4931 22.813 23.3217C22.813 25.1501 21.7698 26.8523 19.9493 28.071C17.917 29.4308 15.2918 30.08 12.7197 30.08C10.148 30.08 7.5234 29.4311 5.49125 28.0718C3.66988 26.8596 2.62634 25.1603 2.62634 23.3317C2.62634 21.5032 3.6696 19.801 5.49006 18.5823L5.49374 18.5799C7.53164 17.2287 10.1584 16.5833 12.7297 16.5833Z" fill="white"></path>
  <path d="M25.2133 17.6911C24.8584 17.6111 24.488 17.7303 24.2462 18.0022C24.0045 18.274 23.9296 18.6561 24.0504 18.9992L24.0517 19.0028L24.0576 19.0199L24.082 19.0918C24.1035 19.1557 24.1347 19.2502 24.1725 19.3692C24.248 19.6078 24.3488 19.942 24.4492 20.3229C24.6563 21.109 24.8364 22.0026 24.8334 22.6621C24.8304 23.3229 24.6413 24.2166 24.4262 25.0024C24.322 25.383 24.2177 25.7169 24.1396 25.9552C24.1007 26.0741 24.0685 26.1686 24.0463 26.2324L24.0211 26.3042L24.015 26.3213L24.0136 26.3252C23.8898 26.666 23.9602 27.0472 24.1976 27.3213C24.4351 27.5955 24.8024 27.7196 25.1574 27.6456C26.2405 27.42 27.2894 26.9792 28.1713 26.3033C29.4254 25.3609 30.1268 24.0476 30.1268 22.66C30.1268 21.2719 29.425 19.9584 28.1702 19.0158C27.2988 18.3514 26.2659 17.9283 25.2133 17.6911Z" fill="white"></path>
</svg>
