<?xml version="1.0" encoding="UTF-8"?>
<svg xmlns="http://www.w3.org/2000/svg" width="33" height="32" viewBox="0 0 33 32" fill="none">
  <path fill-rule="evenodd" clip-rule="evenodd" d="M4.98004 13.2C4.98004 5.97262 11.6257 0.311426 19.1129 1.94288L19.1161 1.94356C22.4123 2.67282 25.3086 4.85974 26.822 7.90114C29.7867 13.859 26.8523 20.0938 22.4734 23.0411V24.04L22.4741 24.0517C22.4807 24.1465 22.5245 24.7707 22.2551 25.2873C21.8768 26.0128 21.116 26.32 20.1934 26.32H12.8512C12.1035 26.3262 11.239 26.2112 10.797 25.4674C10.6003 25.1364 10.5685 24.7971 10.5611 24.5866C10.5572 24.476 10.5597 24.3682 10.5619 24.2843L10.5632 24.2373C10.5651 24.1676 10.5667 24.1117 10.5667 24.0533V23.0545C7.48167 20.9816 4.98004 17.2494 4.98004 13.2ZM17.3672 11.0187C17.6426 10.5399 17.4777 9.9286 16.999 9.65321C16.5203 9.37781 15.9089 9.54265 15.6335 10.0214L14.2085 12.4986C13.9371 12.9644 13.7964 13.6117 14.1396 14.2054C14.4821 14.798 15.1122 15 15.647 15H16.7627L15.6315 16.9849C15.3581 17.4647 15.5254 18.0754 16.0052 18.3488C16.4851 18.6223 17.0957 18.455 17.3692 17.9751L18.7801 15.4994C19.0451 15.0435 19.1963 14.3985 18.8562 13.8006C18.5132 13.1975 17.8741 13 17.3404 13H16.2273L17.3672 11.0187Z" fill="white"></path>
  <path fill-rule="evenodd" clip-rule="evenodd" d="M20.8938 30.2953C18.0189 29.4793 14.9814 29.4793 12.1065 30.2953C11.5752 30.4461 11.0223 30.1377 10.8715 29.6064C10.7207 29.0751 11.0291 28.5221 11.5604 28.3713C14.7923 27.454 18.208 27.454 21.4399 28.3713C21.9712 28.5221 22.2796 29.0751 22.1288 29.6064C21.978 30.1377 21.4251 30.4461 20.8938 30.2953Z" fill="white"></path>
</svg>
