<?xml version="1.0" encoding="UTF-8"?>
<svg xmlns="http://www.w3.org/2000/svg" width="32" height="32" viewBox="0 0 32 32" fill="none">
  <path d="M29.5557 25.3399L27.1743 25.8853C26.6403 26.0112 26.2218 26.4028 26.1063 26.9203L25.6012 28.9763C25.327 30.0952 23.8549 30.4449 23.09 29.5637L18.7747 24.7525C18.4283 24.3608 18.616 23.7454 19.1355 23.6196C21.69 23.0182 23.9848 21.6335 25.6734 19.6615C25.9476 19.3398 26.4383 19.2978 26.7414 19.5915L29.9453 22.6965C31.0422 23.7594 30.6525 25.0881 29.5557 25.3399Z" fill="white"></path>
  <path d="M2.37624 25.3399L4.75758 25.8853C5.29158 26.0112 5.71011 26.4028 5.82557 26.9203L6.33071 28.9763C6.60492 30.0952 8.07702 30.4449 8.84193 29.5637L13.1572 24.7525C13.5036 24.3608 13.316 23.7454 12.7964 23.6196C10.2419 23.0182 7.94713 21.6335 6.25854 19.6615C5.98433 19.3398 5.49363 19.2978 5.19055 19.5915L1.98657 22.6965C0.889712 23.7594 1.27939 25.0881 2.37624 25.3399Z" fill="white"></path>
  <path d="M16.4681 1.33334C10.5709 1.33334 5.8014 6.10287 5.8014 12C5.8014 14.2095 6.45663 16.2362 7.58425 17.9276C9.22997 20.3657 11.8357 22.0876 14.8681 22.5295C15.3862 22.621 15.9195 22.6667 16.4681 22.6667C17.0166 22.6667 17.55 22.621 18.0681 22.5295C21.1004 22.0876 23.7062 20.3657 25.3519 17.9276C26.4795 16.2362 27.1347 14.2095 27.1347 12C27.1347 6.10287 22.3652 1.33334 16.4681 1.33334ZM21.1309 11.6648L19.8662 12.9295C19.6528 13.1429 19.5309 13.5543 19.6071 13.8591L19.9728 15.4286C20.2624 16.6629 19.6071 17.1505 18.51 16.4952L16.9862 15.5962C16.7119 15.4286 16.2547 15.4286 15.9804 15.5962L14.4566 16.4952C13.3595 17.1352 12.7043 16.6629 12.9938 15.4286L13.3595 13.8591C13.4204 13.5695 13.3138 13.1429 13.1004 12.9295L11.8052 11.6648C11.0585 10.9181 11.3023 10.1714 12.3385 10.0038L13.969 9.72953C14.2433 9.68382 14.5633 9.44001 14.6852 9.1962L15.5843 7.39811C16.0719 6.42287 16.8643 6.42287 17.3519 7.39811L18.2509 9.1962C18.3728 9.44001 18.6928 9.68382 18.9823 9.72953L20.6128 10.0038C21.6338 10.1714 21.8776 10.9181 21.1309 11.6648Z" fill="white"></path>
</svg>
