<?xml version="1.0" encoding="UTF-8"?>
<svg xmlns="http://www.w3.org/2000/svg" width="32" height="32" viewBox="0 0 32 32" fill="none">
  <path fill-rule="evenodd" clip-rule="evenodd" d="M16.0035 1.66309C16.8145 1.66309 17.6748 1.77537 18.3828 2.03362L18.3911 2.03664L25.0438 4.52976C26.0397 4.9022 26.8887 5.64988 27.4843 6.51084C28.08 7.37196 28.4802 8.42998 28.4802 9.49309V19.3998C28.4802 20.385 28.1617 21.4501 27.6952 22.3774C27.2286 23.3051 26.5628 24.1965 25.7722 24.7874L20.0411 29.0657L20.0394 29.067C18.8958 29.9261 17.4313 30.3264 16.0135 30.3264C14.5959 30.3264 13.1314 29.9261 11.9878 29.0671L11.986 29.0657L6.25533 24.7878C5.46468 24.1968 4.79849 23.3051 4.33186 22.3774C3.8654 21.4501 3.54688 20.385 3.54688 19.3998V9.49309C3.54688 8.43516 3.94814 7.38017 4.54342 6.52162C5.13859 5.66325 5.98673 4.91609 6.98205 4.54356L6.98331 4.54309L13.6343 2.0373L13.637 2.03629C14.3365 1.77504 15.1937 1.66309 16.0035 1.66309ZM20.654 12.9467C21.0445 12.5562 21.0445 11.923 20.654 11.5325C20.2635 11.142 19.6303 11.142 19.2398 11.5325L14.2136 16.5587L12.774 15.1191C12.3835 14.7286 11.7503 14.7286 11.3598 15.1191C10.9693 15.5097 10.9693 16.1428 11.3598 16.5334L13.5065 18.68C13.897 19.0705 14.5301 19.0705 14.9207 18.68L20.654 12.9467Z" fill="white"></path>
</svg>
