<?xml version="1.0" encoding="UTF-8"?>
<svg xmlns="http://www.w3.org/2000/svg" width="32" height="32" viewBox="0 0 32 32" fill="none">
  <path d="M7.4537 14.8262C1.2137 15.2662 1.14704 24.3462 7.38704 24.7862C7.38704 24.7862 8.32727 24.9187 9.78698 25.0519C9.49037 24.3182 9.33366 23.5118 9.33366 22.6662C9.33366 18.9862 12.3203 15.9995 16.0003 15.9995C19.6803 15.9995 22.667 18.9862 22.667 22.6662C22.667 23.3322 22.5698 23.9739 22.3835 24.575C22.7788 24.4865 23.1527 24.419 23.5107 24.3543C24.8006 24.1214 25.8853 23.9256 27.027 22.9195C30.7803 19.6124 29.067 11.3995 23.2936 10.6662C21.227 -1.84046 3.1737 2.91954 7.4537 14.8262Z" fill="white"></path>
  <path fill-rule="evenodd" clip-rule="evenodd" d="M20.842 24.8637C21.162 24.2023 21.3327 23.4557 21.3327 22.6663C21.3327 19.7223 18.9433 17.333 15.9993 17.333C13.0553 17.333 10.666 19.7223 10.666 22.6663C10.666 23.4557 10.8367 24.2023 11.1567 24.8637C11.242 25.0557 11.338 25.237 11.4447 25.4077C12.362 26.9543 14.058 27.9997 15.9993 27.9997C17.9407 27.9997 19.6367 26.9543 20.554 25.4077C20.6607 25.237 20.7567 25.0557 20.842 24.8637ZM18.2066 22.2084C18.531 21.9084 18.5507 21.4022 18.2507 21.0779C17.9507 20.7535 17.4446 20.7337 17.1202 21.0337L15.4131 22.6127L14.9011 22.1007C14.5887 21.7883 14.0822 21.7883 13.7698 22.1007C13.4573 22.4131 13.4573 22.9196 13.7697 23.2321L14.8257 24.2881C15.1296 24.5919 15.6192 24.6015 15.9346 24.3097L18.2066 22.2084Z" fill="white"></path>
</svg>
