<?xml version="1.0" encoding="UTF-8"?>
<svg xmlns="http://www.w3.org/2000/svg" width="24" height="24" viewBox="0 0 24 24" fill="none">
  <path d="M2 21.25C1.58579 21.25 1.25 21.5858 1.25 22C1.25 22.4142 1.58579 22.75 2 22.75V21.25ZM22 22.75C22.4142 22.75 22.75 22.4142 22.75 22C22.75 21.5858 22.4142 21.25 22 21.25V22.75ZM16.75 22H16C16 22.4142 16.3358 22.75 16.75 22.75V22ZM21.25 22V22.75C21.6642 22.75 22 22.4142 22 22H21.25ZM10 22H9.25C9.25 22.4142 9.58579 22.75 10 22.75V22ZM14 22V22.75C14.4142 22.75 14.75 22.4142 14.75 22H14ZM3 22H2.25C2.25 22.4142 2.58579 22.75 3 22.75V22ZM7 22V22.75C7.41421 22.75 7.75 22.4142 7.75 22H7ZM13.3109 2.48635C13.5795 2.17103 13.5417 1.69767 13.2264 1.42907C12.911 1.16046 12.4377 1.19833 12.1691 1.51365L13.3109 2.48635ZM12.28 2.54L12.8498 3.02762L12.8509 3.02635L12.28 2.54ZM2.31855 7.85228C1.91664 7.95249 1.67207 8.35954 1.77228 8.76145C1.87249 9.16336 2.27954 9.40793 2.68145 9.30772L2.31855 7.85228ZM10 1.25C9.58579 1.25 9.25 1.58579 9.25 2C9.25 2.41421 9.58579 2.75 10 2.75V1.25ZM12.93 2H13.68C13.68 1.58579 13.3442 1.25 12.93 1.25V2ZM12.18 4.92C12.18 5.33421 12.5158 5.67 12.93 5.67C13.3442 5.67 13.68 5.33421 13.68 4.92H12.18ZM2 22.75H22V21.25H2V22.75ZM16 5V22H17.5V5H16ZM16.75 22.75H21.25V21.25H16.75V22.75ZM22 22V5H20.5V22H22ZM22 5C22 4.36648 21.8734 3.67498 21.4488 3.12775C20.9975 2.54608 20.3069 2.25 19.45 2.25V3.75C19.9431 3.75 20.1525 3.90392 20.2637 4.04725C20.4016 4.22502 20.5 4.53352 20.5 5H22ZM19.45 2.25H18.55V3.75H19.45V2.25ZM18.55 2.25C17.6931 2.25 17.0025 2.54608 16.5512 3.12775C16.1266 3.67498 16 4.36648 16 5H17.5C17.5 4.53352 17.5984 4.22502 17.7363 4.04725C17.8475 3.90392 18.0569 3.75 18.55 3.75V2.25ZM9.25 11V22H10.75V11H9.25ZM10 22.75H14V21.25H10V22.75ZM14.75 22V11H13.25V22H14.75ZM14.75 11C14.75 10.3804 14.641 9.70345 14.2674 9.1617C13.8612 8.57267 13.2165 8.25 12.4 8.25V9.75C12.7835 9.75 12.9388 9.87733 13.0326 10.0133C13.159 10.1965 13.25 10.5196 13.25 11H14.75ZM12.4 8.25H11.6V9.75H12.4V8.25ZM11.6 8.25C10.7835 8.25 10.1388 8.57267 9.73259 9.1617C9.35897 9.70345 9.25 10.3804 9.25 11H10.75C10.75 10.5196 10.841 10.1965 10.9674 10.0133C11.0612 9.87733 11.2165 9.75 11.6 9.75V8.25ZM2.25 16V22H3.75V16H2.25ZM3 22.75H7V21.25H3V22.75ZM7.75 22V16H6.25V22H7.75ZM7.75 16C7.75 15.3804 7.64103 14.7035 7.26741 14.1617C6.86118 13.5727 6.21655 13.25 5.4 13.25V14.75C5.78345 14.75 5.93881 14.8773 6.03259 15.0133C6.15897 15.1965 6.25 15.5196 6.25 16H7.75ZM5.4 13.25H4.6V14.75H5.4V13.25ZM4.6 13.25C3.78345 13.25 3.13882 13.5727 2.73259 14.1617C2.35897 14.7035 2.25 15.3804 2.25 16H3.75C3.75 15.5196 3.84103 15.1965 3.96741 15.0133C4.06119 14.8773 4.21655 14.75 4.6 14.75V13.25ZM12.1691 1.51365L11.7091 2.05365L12.8509 3.02635L13.3109 2.48635L12.1691 1.51365ZM11.7102 2.05238C9.26189 4.91349 5.97783 6.93986 2.31855 7.85228L2.68145 9.30772C6.64217 8.32014 10.1981 6.12651 12.8498 3.02762L11.7102 2.05238ZM10 2.75H12.93V1.25H10V2.75ZM12.18 2V4.92H13.68V2H12.18Z" fill="#0031BE"></path>
</svg>
