<?xml version="1.0" encoding="UTF-8"?>
<svg xmlns="http://www.w3.org/2000/svg" width="24" height="24" viewBox="0 0 24 24" fill="none">
  <path d="M16.9598 6.17014C18.9598 7.56014 20.3398 9.77014 20.6198 12.3201M3.4898 12.3701C3.7498 9.83014 5.1098 7.62014 7.0898 6.22014M8.1898 20.9401C9.3498 21.5301 10.6698 21.8601 12.0598 21.8601C13.3998 21.8601 14.6598 21.5601 15.7898 21.0101M14.8398 4.92014C14.8398 6.45549 13.5952 7.70014 12.0598 7.70014C10.5245 7.70014 9.2798 6.45549 9.2798 4.92014C9.2798 3.38479 10.5245 2.14014 12.0598 2.14014C13.5952 2.14014 14.8398 3.38479 14.8398 4.92014ZM7.60981 17.1401C7.60981 18.6755 6.36516 19.9201 4.8298 19.9201C3.29445 19.9201 2.0498 18.6755 2.0498 17.1401C2.0498 15.6048 3.29445 14.3601 4.8298 14.3601C6.36516 14.3601 7.60981 15.6048 7.60981 17.1401ZM21.9498 17.1401C21.9498 18.6755 20.7052 19.9201 19.1698 19.9201C17.6345 19.9201 16.3898 18.6755 16.3898 17.1401C16.3898 15.6048 17.6345 14.3601 19.1698 14.3601C20.7052 14.3601 21.9498 15.6048 21.9498 17.1401Z" stroke="#0031BE" stroke-width="1.5" stroke-linecap="round" stroke-linejoin="round"></path>
</svg>
