<?xml version="1.0" encoding="UTF-8"?>
<svg xmlns="http://www.w3.org/2000/svg" width="25" height="24" viewBox="0 0 25 24" fill="none">
  <path d="M20.1664 12.5C20.1664 11.12 21.2864 10 22.6664 10V9C22.6664 5 21.6664 4 17.6664 4H7.66641C3.66641 4 2.66641 5 2.66641 9V9.5C4.04641 9.5 5.16641 10.62 5.16641 12C5.16641 13.38 4.04641 14.5 2.66641 14.5V15C2.66641 19 3.66641 20 7.66641 20H17.6664C21.6664 20 22.6664 19 22.6664 15C21.2864 15 20.1664 13.88 20.1664 12.5Z" stroke="#0031BE" stroke-width="1.5" stroke-linecap="round" stroke-linejoin="round"></path>
  <path d="M10.6664 4V20" stroke="#0031BE" stroke-width="1.5" stroke-linecap="round" stroke-linejoin="round" stroke-dasharray="5 5"></path>
</svg>
