<?xml version="1.0" encoding="UTF-8"?>
<svg xmlns="http://www.w3.org/2000/svg" width="24" height="24" viewBox="0 0 24 24" fill="none">
  <path d="M4.89997 4.93L8.43997 8.46M4.89997 19.07L8.43997 15.54M19.05 19.07L15.51 15.54M19.05 4.93L15.51 8.46M21.97 12C21.97 17.5228 17.4928 22 11.97 22C6.44712 22 1.96997 17.5228 1.96997 12C1.96997 6.47715 6.44712 2 11.97 2C17.4928 2 21.97 6.47715 21.97 12ZM16.5 12C16.5 14.4853 14.4853 16.5 12 16.5C9.51469 16.5 7.49997 14.4853 7.49997 12C7.49997 9.51472 9.51469 7.5 12 7.5C14.4853 7.5 16.5 9.51472 16.5 12Z" stroke="#0031BE" stroke-width="1.5" stroke-linecap="round" stroke-linejoin="round"></path>
</svg>
