<?xml version="1.0" encoding="UTF-8"?>
<svg xmlns="http://www.w3.org/2000/svg" width="24" height="24" viewBox="0 0 24 24" fill="none">
  <path d="M2 21.25C1.58579 21.25 1.25 21.5857 1.25 22C1.25 22.4142 1.58579 22.75 2 22.75V21.25ZM22 22.75C22.4142 22.75 22.75 22.4142 22.75 22C22.75 21.5857 22.4142 21.25 22 21.25V22.75ZM5.31636 7.19834L4.8559 6.60633L5.31636 7.19834ZM8.31636 4.86501L7.8559 4.27299L8.31636 4.86501ZM15.6836 4.86501L15.2232 5.45702L15.2232 5.45702L15.6836 4.86501ZM18.6836 7.19834L19.1441 6.60633V6.60633L18.6836 7.19834ZM20.6949 9.14915L21.3687 8.81964V8.81963L20.6949 9.14915ZM10.5 6.74995C10.0858 6.74995 9.75 7.08574 9.75 7.49995C9.75 7.91417 10.0858 8.24995 10.5 8.24995V6.74995ZM13.5 8.24995C13.9142 8.24995 14.25 7.91417 14.25 7.49995C14.25 7.08574 13.9142 6.74995 13.5 6.74995V8.24995ZM2 22.75H22V21.25H2V22.75ZM20.25 11.9345V22H21.75V11.9345H20.25ZM3.75 22V11.9345H2.25V22H3.75ZM5.77681 7.79036L8.77681 5.45702L7.8559 4.27299L4.8559 6.60633L5.77681 7.79036ZM15.2232 5.45702L18.2232 7.79036L19.1441 6.60633L16.1441 4.27299L15.2232 5.45702ZM8.77681 5.45702C9.67596 4.75768 10.2989 4.27472 10.8228 3.95905C11.3295 3.65379 11.6722 3.55054 12 3.55054V2.05054C11.2985 2.05054 10.6842 2.29137 10.0487 2.67425C9.43048 3.04675 8.7263 3.59602 7.8559 4.27299L8.77681 5.45702ZM16.1441 4.27299C15.2737 3.59602 14.5695 3.04675 13.9513 2.67425C13.3158 2.29137 12.7015 2.05054 12 2.05054V3.55054C12.3278 3.55054 12.6705 3.65379 13.1772 3.95906C13.7011 4.27472 14.324 4.75768 15.2232 5.45702L16.1441 4.27299ZM21.75 11.9345C21.75 10.5669 21.7679 9.63588 21.3687 8.81964L20.0212 9.47866C20.2321 9.90987 20.25 10.4199 20.25 11.9345H21.75ZM18.2232 7.79036C19.4187 8.72018 19.8103 9.04745 20.0212 9.47866L21.3687 8.81963C20.9695 8.00339 20.2236 7.44595 19.1441 6.60633L18.2232 7.79036ZM3.75 11.9345C3.75 10.4199 3.76789 9.90987 3.97879 9.47866L2.63132 8.81964C2.23211 9.63588 2.25 10.5669 2.25 11.9345H3.75ZM4.8559 6.60633C3.77639 7.44595 3.03053 8.00339 2.63132 8.81964L3.97879 9.47866C4.18969 9.04745 4.58132 8.72018 5.77681 7.79036L4.8559 6.60633ZM10.5 8.24995H13.5V6.74995H10.5V8.24995ZM9.5 11.75H11.5V10.25H9.5V11.75ZM11.75 12V16H13.25V12H11.75ZM11.5 16.25H9.5V17.75H11.5V16.25ZM9.25 16V12H7.75V16H9.25ZM9.5 16.25C9.36193 16.25 9.25 16.138 9.25 16H7.75C7.75 16.9665 8.5335 17.75 9.5 17.75V16.25ZM11.75 16C11.75 16.138 11.6381 16.25 11.5 16.25V17.75C12.4665 17.75 13.25 16.9665 13.25 16H11.75ZM11.5 11.75C11.6381 11.75 11.75 11.8619 11.75 12H13.25C13.25 11.0335 12.4665 10.25 11.5 10.25V11.75ZM9.5 10.25C8.5335 10.25 7.75 11.0335 7.75 12H9.25C9.25 11.8619 9.36193 11.75 9.5 11.75V10.25ZM13.5 14.75H16.5V13.25H13.5V14.75ZM16.75 15V21H18.25V15H16.75ZM16.5 21.25H13.5V22.75H16.5V21.25ZM13.25 21V15H11.75V21H13.25ZM13.5 21.25C13.3619 21.25 13.25 21.138 13.25 21H11.75C11.75 21.9664 12.5335 22.75 13.5 22.75V21.25ZM16.75 21C16.75 21.138 16.6381 21.25 16.5 21.25V22.75C17.4665 22.75 18.25 21.9664 18.25 21H16.75ZM16.5 14.75C16.6381 14.75 16.75 14.8619 16.75 15H18.25C18.25 14.0335 17.4665 13.25 16.5 13.25V14.75ZM13.5 13.25C12.5335 13.25 11.75 14.0335 11.75 15H13.25C13.25 14.8619 13.3619 14.75 13.5 14.75V13.25ZM7.5 17.75H11.5V16.25H7.5V17.75ZM11.75 18V21H13.25V18H11.75ZM11.5 21.25H7.5V22.75H11.5V21.25ZM7.25 21V18H5.75V21H7.25ZM7.5 21.25C7.36193 21.25 7.25 21.138 7.25 21H5.75C5.75 21.9664 6.5335 22.75 7.5 22.75V21.25ZM11.75 21C11.75 21.138 11.6381 21.25 11.5 21.25V22.75C12.4665 22.75 13.25 21.9664 13.25 21H11.75ZM11.5 17.75C11.6381 17.75 11.75 17.8619 11.75 18H13.25C13.25 17.0335 12.4665 16.25 11.5 16.25V17.75ZM7.5 16.25C6.5335 16.25 5.75 17.0335 5.75 18H7.25C7.25 17.8619 7.36193 17.75 7.5 17.75V16.25Z" fill="#0031BE"></path>
</svg>
