<?xml version="1.0" encoding="UTF-8"?>
<svg xmlns="http://www.w3.org/2000/svg" width="20" height="20" viewBox="0 0 20 20" fill="none">
  <path d="M16.6711 5.07818H5.14846C4.58552 5.07818 4.04563 4.85455 3.64757 4.45649C3.24951 4.05842 3.02588 3.51854 3.02588 2.95559C3.02588 2.39265 3.24951 1.85276 3.64757 1.4547C4.04563 1.05664 4.58552 0.833008 5.14846 0.833008H16.6711C17.234 0.833008 17.7739 1.05664 18.172 1.4547C18.57 1.85276 18.7936 2.39265 18.7936 2.95559C18.7936 3.51854 18.57 4.05842 18.172 4.45649C17.7739 4.85455 17.234 5.07818 16.6711 5.07818Z" fill="#0277BD"></path>
  <path d="M16.6711 19.167H5.14846C4.58552 19.167 4.04563 18.9434 3.64757 18.5454C3.24951 18.1473 3.02588 17.6074 3.02588 17.0445C3.02588 16.4815 3.24951 15.9416 3.64757 15.5436C4.04563 15.1455 4.58552 14.9219 5.14846 14.9219H16.6711C17.234 14.9219 17.7739 15.1455 18.172 15.5436C18.57 15.9416 18.7936 16.4815 18.7936 17.0445C18.7936 17.6074 18.57 18.1473 18.172 18.5454C17.7739 18.9434 17.234 19.167 16.6711 19.167Z" fill="#03DAC5"></path>
  <path d="M10.0001 12.1221H3.32913C2.76618 12.1221 2.2263 11.8985 1.82823 11.5004C1.43017 11.1024 1.20654 10.5625 1.20654 9.99954C1.20654 9.43659 1.43017 8.89671 1.82823 8.49864C2.2263 8.10058 2.76618 7.87695 3.32913 7.87695H10.0001C10.5631 7.87695 11.1029 8.10058 11.501 8.49864C11.8991 8.89671 12.1227 9.43659 12.1227 9.99954C12.1227 10.5625 11.8991 11.1024 11.501 11.5004C11.1029 11.8985 10.5631 12.1221 10.0001 12.1221Z" fill="#00C853"></path>
</svg>
