<?xml version="1.0" encoding="UTF-8"?>
<svg xmlns="http://www.w3.org/2000/svg" width="48" height="48" viewBox="0 0 48 48" fill="none">
  <path d="M43.4948 20.5705L33.2739 18.5151L36.629 8.39761C37.224 6.63583 36.8034 4.8549 35.2925 3.96125C33.7817 3.06759 32.0496 3.63251 30.8752 4.99533L24 13.0287L17.1248 4.99533C15.9192 3.61336 14.2058 3.08355 12.7074 3.96125C11.1934 4.84852 10.7729 6.65498 11.371 8.39761L14.7229 18.5151L4.50202 20.5737C2.7139 20.9216 1.41486 22.2333 1.41175 24.0174C1.40863 25.8048 2.74816 27.0623 4.48644 27.4293L14.7229 29.4847L11.371 39.6022C10.776 41.3639 11.1966 43.1449 12.7074 44.0385C14.2183 44.9322 15.9503 44.3673 17.1248 43.0044L24 34.9711L30.8752 43.0044C32.0808 44.3864 33.7941 44.9162 35.2925 44.0385C36.8065 43.1513 37.2271 41.3448 36.629 39.6022L33.277 29.4847L43.5135 27.4261C45.2518 27.0591 46.5913 25.8016 46.5882 24.0142C46.5851 22.2269 45.2861 20.9184 43.4979 20.5705H43.4948Z" fill="white"></path>
</svg>
