<?xml version="1.0" encoding="UTF-8"?><svg id="a" xmlns="http://www.w3.org/2000/svg" viewBox="0 0 195 195"><defs><style>.d{fill:#448aff;}</style></defs><g id="b"><path id="c" class="d" d="M160.08,86.76l-32.81-6.44h0l10.77-31.7c1.91-5.52,.56-11.1-4.29-13.9-4.85-2.8-10.41-1.03-14.18,3.24l-22.07,25.17-22.07-25.17c-3.87-4.33-9.37-5.99-14.18-3.24-4.86,2.78-6.21,8.44-4.29,13.9l10.76,31.7h0l-32.81,6.45c-5.74,1.09-9.91,5.2-9.92,10.79-.01,5.6,4.29,9.54,9.87,10.69l32.86,6.44h0l-10.76,31.7c-1.91,5.52-.56,11.1,4.29,13.9,4.85,2.8,10.41,1.03,14.18-3.24l22.07-25.17,22.07,25.17c3.87,4.33,9.37,5.99,14.18,3.24,4.86-2.78,6.21-8.44,4.29-13.9l-10.76-31.7h0l32.86-6.45c5.58-1.15,9.88-5.09,9.87-10.69-.01-5.6-4.18-9.7-9.92-10.79Z"/></g></svg>