<?xml version="1.0" encoding="UTF-8"?><svg id="a" xmlns="http://www.w3.org/2000/svg" viewBox="0 0 830.26 266.73"><defs><style>.f{fill:#ff9100;}.g{fill:#9e9e9e;}</style></defs><g id="b"><g id="c"><path class="f" d="M191.14,73.39l-48.89,117.57c-5.81,12.77-15.97,24.05-30.86,24.05-14.74,0-25.47-10.21-30.75-23.61l-26.93-77.78c-2.74-7.92-.79-15.8,6.1-19.78h0c6.9-3.98,14.63-1.86,20.18,4.61l31.4,35.82,53.48-76.05c5.07-6.65,12.85-8.2,20.18-4.61h0c6.9,3.98,9.22,11.98,6.1,19.78Z"/></g><g id="d"><path class="g" d="M269.39,104.16v-20.33c0-4.99-1.99-8.28-6.52-8.28s-6.83,4.07-6.83,8.36v20.25h-11.05v-37.89h10.43v4.3c2.38-4.14,6.75-5.14,9.97-5.14,4.14,0,8.59,1.53,11.05,7.06,3.38-5.14,6.98-7.13,12.58-7.13,7.9,0,15.11,3.99,15.11,18.1v20.71h-11.12v-20.48c0-4.76-1.3-7.9-5.75-7.9s-6.98,3.76-6.98,8.05v20.33h-10.89Z"/><path class="g" d="M348.32,83.91c0,1.64-.15,3.22-.46,4.76h-26.54c.31,2.2,1.38,3.93,3.22,5.18,1.84,1.25,3.91,1.88,6.21,1.88,3.89,0,7.31-1.18,10.28-3.53l5.14,7.13c-3.94,3.78-9.28,5.68-16.03,5.68-6.14,0-11.16-1.7-15.07-5.1-3.91-3.4-5.87-8.27-5.87-14.61s2.01-11.11,6.02-14.61c4.01-3.5,8.83-5.25,14.46-5.25s10.01,1.62,13.46,4.87c3.45,3.25,5.18,7.79,5.18,13.62Zm-13.5-7.56c-1.43-1.25-3.25-1.88-5.45-1.88s-4.04,.63-5.52,1.88c-1.48,1.25-2.33,3.08-2.53,5.48h15.57c.05-2.4-.64-4.23-2.07-5.48Z"/><path class="g" d="M364.51,50.54v30.61l11.2-14.8h13.04v.69l-13.88,17.11,16.03,19.18v.84h-13.27l-13.12-16.65v16.65h-11.05V50.54h11.05Z"/><path class="g" d="M409.91,65.42c6.34,0,11.13,1.19,14.38,3.57,3.25,2.38,4.87,6.17,4.87,11.39v23.78h-10.59v-6.9h0c-1.02,2.3-2.91,4.14-5.22,5.52-2.3,1.38-4.94,2.07-7.9,2.07-3.89,0-7.11-1.11-9.66-3.34-2.56-2.22-3.84-5.2-3.84-8.94,0-3.94,1.42-7.01,4.26-9.2,2.84-2.2,6.51-3.3,11.01-3.3,3.94,0,7.24,.67,9.89,1.99v-.77c0-4.5-2.91-6.75-8.74-6.75-3.48,0-7.31,.72-11.51,2.15l-2.22-8.36c4.91-1.94,10-2.91,15.26-2.91Zm-.61,30.15c2.1,0,3.89-.56,5.37-1.69,1.48-1.12,2.38-2.68,2.68-4.68-2.35-1.23-4.88-1.84-7.59-1.84-1.79,0-3.21,.36-4.26,1.07-1.05,.72-1.57,1.76-1.57,3.14,0,1.28,.51,2.26,1.53,2.95,1.02,.69,2.3,1.04,3.84,1.04Z"/><path class="g" d="M445.97,66.34v4.14c2.53-3.53,5.91-5.06,10.13-5.06,3.61,0,6.6,1.07,9.28,3.45l-4.6,8.74c-1.84-1.3-3.76-1.92-6.06-1.92-4.76,0-8.82,3.07-8.82,8.74v19.71h-11.05v-37.82h11.12Z"/><path class="g" d="M479.95,56.21c0,8.28-12.58,8.28-12.58,0s12.58-8.28,12.58,0Zm-11.81,9.97v37.97h11.05v-37.97h-11.05Z"/></g><g id="e"><path d="M263.86,125.26v52.27l19.12-25.28h22.27v1.18l-23.71,29.21,27.38,32.75v1.44h-22.66l-22.4-28.43v28.43h-18.86V125.26h18.86Z"/><path d="M334.47,125.26v91.57h-18.73V125.26h18.73Z"/><path d="M369.58,134.95c0,14.15-21.48,14.15-21.48,0s21.48-14.15,21.48,0Zm-20.17,17.03v64.84h18.86v-64.84h-18.86Z"/><path d="M401.8,125.26v52.27l19.12-25.28h22.27v1.18l-23.71,29.21,27.38,32.75v1.44h-22.66l-22.4-28.43v28.43h-18.86V125.26h18.86Z"/><path d="M453.42,245.38v-93.14h18.08v8.25c6.03-7.73,13.36-9.43,21.48-9.43,18.99,0,31.96,13.36,31.96,33.54s-13.23,33.67-32.22,33.67c-6.81,0-14.8-2.36-20.3-9.17v36.29h-18.99Zm52.53-60.78c0-9.3-5.76-16.64-15.85-16.64-8.51,0-17.42,4.32-17.42,16.64,0,10.87,8.78,16.64,17.42,16.64,9.69,0,15.85-6.94,15.85-16.64Z"/><path d="M628.17,151.98v67.99c.52,25.81-20.57,30.65-37.07,21.09l5.37-13.75c7.2,3.67,12.97,3.28,12.97-6.81v-68.51h18.73Zm-19.91-17.03c0,14.15,21.35,14.15,21.35,0s-21.35-14.15-21.35,0Z"/><path d="M735.2,125.26v52.27l19.12-25.28h22.27v1.18l-23.71,29.21,27.38,32.75v1.44h-22.66l-22.4-28.43v28.43h-18.86V125.26h18.86Z"/><path d="M562.41,150.67c10.83,0,19.02,2.03,24.56,6.09,5.55,4.06,8.32,10.55,8.32,19.45v40.61h-18.08v-11.79h0c-1.75,3.93-4.98,7.07-8.91,9.43-3.93,2.36-8.43,3.54-13.49,3.54-6.64,0-12.14-1.9-16.51-5.7-4.37-3.8-6.55-8.89-6.55-15.26,0-6.72,2.42-11.96,7.27-15.72,4.85-3.75,11.11-5.63,18.8-5.63,6.72,0,12.36,1.14,16.9,3.41v-1.31c0-7.68-4.98-11.53-14.93-11.53-5.94,0-12.49,1.22-19.65,3.67l-3.8-14.28c8.38-3.32,17.07-4.98,26.07-4.98Zm-1.05,51.48c3.58,0,6.64-.96,9.17-2.88,2.53-1.92,4.06-4.59,4.58-7.99-4.02-2.1-8.34-3.14-12.97-3.14-3.06,0-5.48,.61-7.27,1.83-1.79,1.22-2.69,3.01-2.69,5.37,0,2.18,.87,3.86,2.62,5.04,1.75,1.18,3.93,1.77,6.55,1.77Z"/><path d="M669.3,150.67c10.83,0,19.02,2.03,24.56,6.09,5.55,4.06,8.32,10.55,8.32,19.45v40.61h-18.08v-11.79h0c-1.75,3.93-4.98,7.07-8.91,9.43-3.93,2.36-8.43,3.54-13.49,3.54-6.64,0-12.14-1.9-16.51-5.7-4.37-3.8-6.55-8.89-6.55-15.26,0-6.72,2.42-11.96,7.27-15.72,4.85-3.75,11.11-5.63,18.8-5.63,6.72,0,12.36,1.14,16.9,3.41v-1.31c0-7.68-4.98-11.53-14.93-11.53-5.94,0-12.49,1.22-19.65,3.67l-3.8-14.28c8.38-3.32,17.07-4.98,26.07-4.98Zm-1.05,51.48c3.58,0,6.64-.96,9.17-2.88,2.53-1.92,4.06-4.59,4.58-7.99-4.02-2.1-8.34-3.14-12.97-3.14-3.06,0-5.48,.61-7.27,1.83-1.79,1.22-2.69,3.01-2.69,5.37,0,2.18,.87,3.86,2.62,5.04,1.75,1.18,3.93,1.77,6.55,1.77Z"/></g></g></svg>