<?xml version="1.0" encoding="UTF-8"?><svg id="a" xmlns="http://www.w3.org/2000/svg" viewBox="0 0 530.56 266.73"><defs><style>.f{fill:#9e9e9e;}.g{fill:#7c4dff;}</style></defs><g id="b"><path id="c" class="g" d="M181.61,115.91l-36.97-4.72-4.64-36.68c-2.53-7.96-9.06-13.64-17.51-13.64-8.36,0-14.84,5.62-17.44,13.39l-4.72,36.97-36.68,4.64c-7.96,2.53-13.64,9.06-13.64,17.51s5.62,14.84,13.39,17.44l36.97,4.72,4.64,36.68c2.53,7.96,9.06,13.64,17.51,13.64,8.36,0,14.84-5.62,17.44-13.39l4.72-36.97,36.68-4.64c7.96-2.53,13.64-9.06,13.64-17.51s-5.62-14.84-13.39-17.44Z"/><g id="d"><path class="f" d="M269.39,104.16v-20.33c0-4.99-1.99-8.28-6.52-8.28s-6.83,4.07-6.83,8.36v20.25h-11.05v-37.89h10.43v4.3c2.38-4.14,6.75-5.14,9.97-5.14,4.14,0,8.59,1.53,11.05,7.06,3.38-5.14,6.98-7.13,12.58-7.13,7.9,0,15.11,3.99,15.11,18.1v20.71h-11.12v-20.48c0-4.76-1.3-7.9-5.75-7.9s-6.98,3.76-6.98,8.05v20.33h-10.89Z"/><path class="f" d="M348.32,83.91c0,1.64-.15,3.22-.46,4.76h-26.54c.31,2.2,1.38,3.93,3.22,5.18,1.84,1.25,3.91,1.88,6.21,1.88,3.89,0,7.31-1.18,10.28-3.53l5.14,7.13c-3.94,3.78-9.28,5.68-16.03,5.68-6.14,0-11.16-1.7-15.07-5.1-3.91-3.4-5.87-8.27-5.87-14.61s2.01-11.11,6.02-14.61c4.01-3.5,8.83-5.25,14.46-5.25s10.01,1.62,13.46,4.87c3.45,3.25,5.18,7.79,5.18,13.62Zm-13.5-7.56c-1.43-1.25-3.25-1.88-5.45-1.88s-4.04,.63-5.52,1.88c-1.48,1.25-2.33,3.08-2.53,5.48h15.57c.05-2.4-.64-4.23-2.07-5.48Z"/><path class="f" d="M364.51,50.54v30.61l11.2-14.8h13.04v.69l-13.88,17.11,16.03,19.18v.84h-13.27l-13.12-16.65v16.65h-11.05V50.54h11.05Z"/><path class="f" d="M409.91,65.42c6.34,0,11.13,1.19,14.38,3.57,3.25,2.38,4.87,6.17,4.87,11.39v23.78h-10.59v-6.9h0c-1.02,2.3-2.91,4.14-5.22,5.52-2.3,1.38-4.94,2.07-7.9,2.07-3.89,0-7.11-1.11-9.66-3.34-2.56-2.22-3.84-5.2-3.84-8.94,0-3.94,1.42-7.01,4.26-9.2,2.84-2.2,6.51-3.3,11.01-3.3,3.94,0,7.24,.67,9.89,1.99v-.77c0-4.5-2.91-6.75-8.74-6.75-3.48,0-7.31,.72-11.51,2.15l-2.22-8.36c4.91-1.94,10-2.91,15.26-2.91Zm-.61,30.15c2.1,0,3.89-.56,5.37-1.69,1.48-1.12,2.38-2.68,2.68-4.68-2.35-1.23-4.88-1.84-7.59-1.84-1.79,0-3.21,.36-4.26,1.07-1.05,.72-1.57,1.76-1.57,3.14,0,1.28,.51,2.26,1.53,2.95,1.02,.69,2.3,1.04,3.84,1.04Z"/><path class="f" d="M445.97,66.34v4.14c2.53-3.53,5.91-5.06,10.13-5.06,3.61,0,6.6,1.07,9.28,3.45l-4.6,8.74c-1.84-1.3-3.76-1.92-6.06-1.92-4.76,0-8.82,3.07-8.82,8.74v19.71h-11.05v-37.82h11.12Z"/><path class="f" d="M479.95,56.21c0,8.28-12.58,8.28-12.58,0s12.58-8.28,12.58,0Zm-11.81,9.97v37.97h11.05v-37.97h-11.05Z"/></g><g id="e"><path d="M256.41,216.83v-47.68h-11.4v-15.85h11.4v-3.8c0-18.73,13.62-26.07,26.2-26.07,7.2,0,12.31,1.96,17.95,5.5l-6.42,13.23c-3.01-1.83-6.42-2.62-9.3-2.62-5.63,0-9.56,3.14-9.56,9.96v3.8h17.95v15.85h-17.95v47.68h-18.86Z"/><path d="M327.1,125.26v91.57h-18.73V125.26h18.73Z"/><path d="M406.36,182.24c0,2.8-.26,5.5-.79,8.12h-45.33c.52,3.76,2.36,6.7,5.5,8.84,3.14,2.14,6.68,3.21,10.61,3.21,6.64,0,12.49-2.01,17.55-6.03l8.78,12.18c-6.73,6.46-15.85,9.69-27.38,9.69-10.48,0-19.06-2.9-25.74-8.71-6.68-5.81-10.02-14.12-10.02-24.96s3.43-18.97,10.28-24.96c6.85-5.98,15.08-8.97,24.69-8.97s17.1,2.77,22.99,8.32c5.9,5.55,8.84,13.3,8.84,23.25Zm-23.06-12.9c-2.45-2.14-5.55-3.21-9.3-3.21s-6.9,1.07-9.43,3.21c-2.53,2.14-3.97,5.26-4.32,9.37h26.59c.09-4.1-1.09-7.23-3.54-9.37Z"/><path d="M456.69,152.24h22.53v.66l-20.57,31.44,21.75,32.09v.39h-22.53l-11.92-19.39-11.79,19.39h-22.66v-.39l21.88-32.09-20.7-31.44v-.66h22.53l10.74,19.26,10.74-19.26Z"/></g></g></svg>