<?xml version="1.0" encoding="UTF-8"?><svg id="a" xmlns="http://www.w3.org/2000/svg" viewBox="0 0 195 195"><defs><style>.d{fill:#651fff;}.e{fill:#40c3ff;fill-rule:evenodd;}</style></defs><g id="b"><g id="c"><path class="e" d="M72.94,25.59h49.12c12.71,0,24.91,5.05,33.9,14.04,8.99,8.99,14.04,21.18,14.04,33.9s-5.05,24.91-14.04,33.9c-8.99,8.99-21.18,14.04-33.9,14.04H56.96c-17.64,0-31.96,9.91-31.96,22.08V73.53c0-12.71,5.05-24.91,14.04-33.9,8.99-8.99,21.18-14.04,33.9-14.04Z"/><path class="d" d="M56.96,121.47c-17.64,0-31.96,9.91-31.96,22.08v3.77c0,12.18,14.32,22.08,31.96,22.08h12.78c1.37,0,2.73-.32,3.96-.93,1.23-.61,2.31-1.49,3.14-2.58,.84-1.09,1.41-2.36,1.68-3.7,.27-1.35,.23-2.74-.12-4.07l-9.94-36.66h-11.51Z"/></g></g></svg>