<?xml version="1.0" encoding="UTF-8"?>
<svg xmlns="http://www.w3.org/2000/svg" width="94" height="60" viewBox="0 0 94 60" fill="none">
  <g clip-path="url(#clip0_8008_79105)">
    <path d="M5.32097 10.1218L8.22879 20.7838H8.27761V10.1218H12.4937V27.4232H7.55025L4.54642 16.7367H4.4976V27.4232H0.281494V10.1218H5.32097Z" fill="white"></path>
    <path d="M24.8752 10.1218V13.8043H19.1327V16.7611H24.5123V20.2989H19.1327V23.739H25.0932V27.4215H14.6254V10.1218H24.8752Z" fill="white"></path>
    <path d="M30.7137 10.1218L32.144 15.1371H32.1928L33.6231 10.1218H38.6626L34.907 18.6521L38.9539 27.4232H33.9144L32.1944 22.2142H32.1456L30.4256 27.4232H25.4578L29.4802 18.6521L25.6758 10.1218H30.7153H30.7137Z" fill="white"></path>
    <path d="M39.4126 13.9492V10.1201H50.655V13.9492H47.2623V27.4215H42.7549V13.9492H39.411H39.4126Z" fill="white"></path>
    <path d="M4.78724 29.4866V43.1054H10.336V46.788H0.281494V29.4866H4.78887H4.78724Z" fill="white"></path>
    <path d="M21.7493 29.4866V33.1692H16.0069V36.126H21.3864V39.6637H16.0069V43.1038H21.9674V46.7864H11.4995V29.485H21.7493V29.4866Z" fill="white"></path>
    <path d="M27.0068 29.4866L28.8244 42.5228H28.8732L30.6908 29.4866H35.4878L31.7566 46.788H25.941L22.2814 29.4866H27.0068Z" fill="white"></path>
    <path d="M46.4634 29.4866V33.1692H40.721V36.126H46.1006V39.6637H40.721V43.1038H46.6815V46.7864H36.2136V29.485H46.4634V29.4866Z" fill="white"></path>
    <path d="M52.8355 29.4866V43.1054H58.3843V46.788H48.3281V29.4866H52.8355Z" fill="white"></path>
    <path d="M23.4025 54.1694C23.287 54.0685 23.1145 54.0181 22.8851 54.0181H21.7883V55.3004H22.8851C23.1145 55.3004 23.287 55.2499 23.4025 55.1474C23.5164 55.0465 23.575 54.8805 23.575 54.6511C23.575 54.4216 23.5164 54.2687 23.4025 54.1694ZM23.4025 54.1694C23.287 54.0685 23.1145 54.0181 22.8851 54.0181H21.7883V55.3004H22.8851C23.1145 55.3004 23.287 55.2499 23.4025 55.1474C23.5164 55.0465 23.575 54.8805 23.575 54.6511C23.575 54.4216 23.5164 54.2687 23.4025 54.1694ZM23.4025 54.1694C23.287 54.0685 23.1145 54.0181 22.8851 54.0181H21.7883V55.3004H22.8851C23.1145 55.3004 23.287 55.2499 23.4025 55.1474C23.5164 55.0465 23.575 54.8805 23.575 54.6511C23.575 54.4216 23.5164 54.2687 23.4025 54.1694ZM23.4025 54.1694C23.287 54.0685 23.1145 54.0181 22.8851 54.0181H21.7883V55.3004H22.8851C23.1145 55.3004 23.287 55.2499 23.4025 55.1474C23.5164 55.0465 23.575 54.8805 23.575 54.6511C23.575 54.4216 23.5164 54.2687 23.4025 54.1694ZM23.4025 54.1694C23.287 54.0685 23.1145 54.0181 22.8851 54.0181H21.7883V55.3004H22.8851C23.1145 55.3004 23.287 55.2499 23.4025 55.1474C23.5164 55.0465 23.575 54.8805 23.575 54.6511C23.575 54.4216 23.5164 54.2687 23.4025 54.1694ZM47.0557 54.35C47.0052 54.2605 46.9417 54.1922 46.8604 54.1434C46.779 54.0945 46.6863 54.062 46.5805 54.0441C46.4731 54.0278 46.3625 54.0181 46.2486 54.0181H45.4707V55.3834H46.2486C46.3625 55.3834 46.4731 55.3752 46.5805 55.359C46.6863 55.3411 46.779 55.3085 46.8604 55.2597C46.9417 55.2109 47.0052 55.1409 47.0557 55.0514C47.1045 54.9635 47.1289 54.8464 47.1289 54.7015C47.1289 54.5567 47.1045 54.4395 47.0557 54.35ZM47.0557 54.35C47.0052 54.2605 46.9417 54.1922 46.8604 54.1434C46.779 54.0945 46.6863 54.062 46.5805 54.0441C46.4731 54.0278 46.3625 54.0181 46.2486 54.0181H45.4707V55.3834H46.2486C46.3625 55.3834 46.4731 55.3752 46.5805 55.359C46.6863 55.3411 46.779 55.3085 46.8604 55.2597C46.9417 55.2109 47.0052 55.1409 47.0557 55.0514C47.1045 54.9635 47.1289 54.8464 47.1289 54.7015C47.1289 54.5567 47.1045 54.4395 47.0557 54.35ZM23.4025 54.1694C23.287 54.0685 23.1145 54.0181 22.8851 54.0181H21.7883V55.3004H22.8851C23.1145 55.3004 23.287 55.2499 23.4025 55.1474C23.5164 55.0465 23.575 54.8805 23.575 54.6511C23.575 54.4216 23.5164 54.2687 23.4025 54.1694ZM23.4025 54.1694C23.287 54.0685 23.1145 54.0181 22.8851 54.0181H21.7883V55.3004H22.8851C23.1145 55.3004 23.287 55.2499 23.4025 55.1474C23.5164 55.0465 23.575 54.8805 23.575 54.6511C23.575 54.4216 23.5164 54.2687 23.4025 54.1694ZM47.0557 54.35C47.0052 54.2605 46.9417 54.1922 46.8604 54.1434C46.779 54.0945 46.6863 54.062 46.5805 54.0441C46.4731 54.0278 46.3625 54.0181 46.2486 54.0181H45.4707V55.3834H46.2486C46.3625 55.3834 46.4731 55.3752 46.5805 55.359C46.6863 55.3411 46.779 55.3085 46.8604 55.2597C46.9417 55.2109 47.0052 55.1409 47.0557 55.0514C47.1045 54.9635 47.1289 54.8464 47.1289 54.7015C47.1289 54.5567 47.1045 54.4395 47.0557 54.35ZM54.5229 54.35C54.4741 54.2605 54.409 54.1922 54.3293 54.1434C54.2479 54.0945 54.1552 54.062 54.0478 54.0441C53.942 54.0278 53.8314 54.0181 53.7175 54.0181H52.938V55.3834H53.7175C53.8314 55.3834 53.942 55.3752 54.0478 55.359C54.1552 55.3411 54.2479 55.3085 54.3293 55.2597C54.409 55.2109 54.4741 55.1409 54.5229 55.0514C54.5717 54.9635 54.5978 54.8464 54.5978 54.7015C54.5978 54.5567 54.5717 54.4395 54.5229 54.35ZM59.5266 54.1694C59.4127 54.0685 59.2402 54.0181 59.0108 54.0181H57.914V55.3004H59.0108C59.2402 55.3004 59.4127 55.2499 59.5266 55.1474C59.6421 55.0465 59.6991 54.8805 59.6991 54.6511C59.6991 54.4216 59.6421 54.2687 59.5266 54.1694ZM59.5266 54.1694C59.4127 54.0685 59.2402 54.0181 59.0108 54.0181H57.914V55.3004H59.0108C59.2402 55.3004 59.4127 55.2499 59.5266 55.1474C59.6421 55.0465 59.6991 54.8805 59.6991 54.6511C59.6991 54.4216 59.6421 54.2687 59.5266 54.1694ZM54.5229 54.35C54.4741 54.2605 54.409 54.1922 54.3293 54.1434C54.2479 54.0945 54.1552 54.062 54.0478 54.0441C53.942 54.0278 53.8314 54.0181 53.7175 54.0181H52.938V55.3834H53.7175C53.8314 55.3834 53.942 55.3752 54.0478 55.359C54.1552 55.3411 54.2479 55.3085 54.3293 55.2597C54.409 55.2109 54.4741 55.1409 54.5229 55.0514C54.5717 54.9635 54.5978 54.8464 54.5978 54.7015C54.5978 54.5567 54.5717 54.4395 54.5229 54.35ZM47.0557 54.35C47.0052 54.2605 46.9417 54.1922 46.8604 54.1434C46.779 54.0945 46.6863 54.062 46.5805 54.0441C46.4731 54.0278 46.3625 54.0181 46.2486 54.0181H45.4707V55.3834H46.2486C46.3625 55.3834 46.4731 55.3752 46.5805 55.359C46.6863 55.3411 46.779 55.3085 46.8604 55.2597C46.9417 55.2109 47.0052 55.1409 47.0557 55.0514C47.1045 54.9635 47.1289 54.8464 47.1289 54.7015C47.1289 54.5567 47.1045 54.4395 47.0557 54.35ZM23.4025 54.1694C23.287 54.0685 23.1145 54.0181 22.8851 54.0181H21.7883V55.3004H22.8851C23.1145 55.3004 23.287 55.2499 23.4025 55.1474C23.5164 55.0465 23.575 54.8805 23.575 54.6511C23.575 54.4216 23.5164 54.2687 23.4025 54.1694ZM23.4025 54.1694C23.287 54.0685 23.1145 54.0181 22.8851 54.0181H21.7883V55.3004H22.8851C23.1145 55.3004 23.287 55.2499 23.4025 55.1474C23.5164 55.0465 23.575 54.8805 23.575 54.6511C23.575 54.4216 23.5164 54.2687 23.4025 54.1694ZM47.0557 54.35C47.0052 54.2605 46.9417 54.1922 46.8604 54.1434C46.779 54.0945 46.6863 54.062 46.5805 54.0441C46.4731 54.0278 46.3625 54.0181 46.2486 54.0181H45.4707V55.3834H46.2486C46.3625 55.3834 46.4731 55.3752 46.5805 55.359C46.6863 55.3411 46.779 55.3085 46.8604 55.2597C46.9417 55.2109 47.0052 55.1409 47.0557 55.0514C47.1045 54.9635 47.1289 54.8464 47.1289 54.7015C47.1289 54.5567 47.1045 54.4395 47.0557 54.35ZM54.5229 54.35C54.4741 54.2605 54.409 54.1922 54.3293 54.1434C54.2479 54.0945 54.1552 54.062 54.0478 54.0441C53.942 54.0278 53.8314 54.0181 53.7175 54.0181H52.938V55.3834H53.7175C53.8314 55.3834 53.942 55.3752 54.0478 55.359C54.1552 55.3411 54.2479 55.3085 54.3293 55.2597C54.409 55.2109 54.4741 55.1409 54.5229 55.0514C54.5717 54.9635 54.5978 54.8464 54.5978 54.7015C54.5978 54.5567 54.5717 54.4395 54.5229 54.35ZM59.5266 54.1694C59.4127 54.0685 59.2402 54.0181 59.0108 54.0181H57.914V55.3004H59.0108C59.2402 55.3004 59.4127 55.2499 59.5266 55.1474C59.6421 55.0465 59.6991 54.8805 59.6991 54.6511C59.6991 54.4216 59.6421 54.2687 59.5266 54.1694ZM65.4497 54.957C65.4041 54.7699 65.3325 54.6023 65.2349 54.4558C65.1372 54.3094 65.0103 54.1922 64.8525 54.1043C64.6946 54.0181 64.5042 53.9741 64.2781 53.9741C64.0519 53.9741 63.8615 54.0181 63.7053 54.1043C63.5474 54.1922 63.4205 54.3094 63.3213 54.4558C63.2236 54.6023 63.1537 54.7699 63.1081 54.957C63.0642 55.1442 63.0414 55.3378 63.0414 55.5363C63.0414 55.7349 63.0642 55.9139 63.1081 56.0945C63.1537 56.2751 63.2236 56.4379 63.3213 56.5827C63.4205 56.7275 63.5474 56.843 63.7053 56.9309C63.8615 57.0172 64.0535 57.0611 64.2781 57.0611C64.5026 57.0611 64.6946 57.0172 64.8525 56.9309C65.0103 56.843 65.1372 56.7275 65.2349 56.5827C65.3325 56.4379 65.4041 56.2751 65.4497 56.0945C65.4936 55.9139 65.5164 55.7284 65.5164 55.5363C65.5164 55.3443 65.4936 55.1442 65.4497 54.957ZM65.4497 54.957C65.4041 54.7699 65.3325 54.6023 65.2349 54.4558C65.1372 54.3094 65.0103 54.1922 64.8525 54.1043C64.6946 54.0181 64.5042 53.9741 64.2781 53.9741C64.0519 53.9741 63.8615 54.0181 63.7053 54.1043C63.5474 54.1922 63.4205 54.3094 63.3213 54.4558C63.2236 54.6023 63.1537 54.7699 63.1081 54.957C63.0642 55.1442 63.0414 55.3378 63.0414 55.5363C63.0414 55.7349 63.0642 55.9139 63.1081 56.0945C63.1537 56.2751 63.2236 56.4379 63.3213 56.5827C63.4205 56.7275 63.5474 56.843 63.7053 56.9309C63.8615 57.0172 64.0535 57.0611 64.2781 57.0611C64.5026 57.0611 64.6946 57.0172 64.8525 56.9309C65.0103 56.843 65.1372 56.7275 65.2349 56.5827C65.3325 56.4379 65.4041 56.2751 65.4497 56.0945C65.4936 55.9139 65.5164 55.7284 65.5164 55.5363C65.5164 55.3443 65.4936 55.1442 65.4497 54.957ZM59.5266 54.1694C59.4127 54.0685 59.2402 54.0181 59.0108 54.0181H57.914V55.3004H59.0108C59.2402 55.3004 59.4127 55.2499 59.5266 55.1474C59.6421 55.0465 59.6991 54.8805 59.6991 54.6511C59.6991 54.4216 59.6421 54.2687 59.5266 54.1694ZM54.5229 54.35C54.4741 54.2605 54.409 54.1922 54.3293 54.1434C54.2479 54.0945 54.1552 54.062 54.0478 54.0441C53.942 54.0278 53.8314 54.0181 53.7175 54.0181H52.938V55.3834H53.7175C53.8314 55.3834 53.942 55.3752 54.0478 55.359C54.1552 55.3411 54.2479 55.3085 54.3293 55.2597C54.409 55.2109 54.4741 55.1409 54.5229 55.0514C54.5717 54.9635 54.5978 54.8464 54.5978 54.7015C54.5978 54.5567 54.5717 54.4395 54.5229 54.35ZM47.0557 54.35C47.0052 54.2605 46.9417 54.1922 46.8604 54.1434C46.779 54.0945 46.6863 54.062 46.5805 54.0441C46.4731 54.0278 46.3625 54.0181 46.2486 54.0181H45.4707V55.3834H46.2486C46.3625 55.3834 46.4731 55.3752 46.5805 55.359C46.6863 55.3411 46.779 55.3085 46.8604 55.2597C46.9417 55.2109 47.0052 55.1409 47.0557 55.0514C47.1045 54.9635 47.1289 54.8464 47.1289 54.7015C47.1289 54.5567 47.1045 54.4395 47.0557 54.35ZM23.4025 54.1694C23.287 54.0685 23.1145 54.0181 22.8851 54.0181H21.7883V55.3004H22.8851C23.1145 55.3004 23.287 55.2499 23.4025 55.1474C23.5164 55.0465 23.575 54.8805 23.575 54.6511C23.575 54.4216 23.5164 54.2687 23.4025 54.1694ZM23.4025 54.1694C23.287 54.0685 23.1145 54.0181 22.8851 54.0181H21.7883V55.3004H22.8851C23.1145 55.3004 23.287 55.2499 23.4025 55.1474C23.5164 55.0465 23.575 54.8805 23.575 54.6511C23.575 54.4216 23.5164 54.2687 23.4025 54.1694ZM47.0557 54.35C47.0052 54.2605 46.9417 54.1922 46.8604 54.1434C46.779 54.0945 46.6863 54.062 46.5805 54.0441C46.4731 54.0278 46.3625 54.0181 46.2486 54.0181H45.4707V55.3834H46.2486C46.3625 55.3834 46.4731 55.3752 46.5805 55.359C46.6863 55.3411 46.779 55.3085 46.8604 55.2597C46.9417 55.2109 47.0052 55.1409 47.0557 55.0514C47.1045 54.9635 47.1289 54.8464 47.1289 54.7015C47.1289 54.5567 47.1045 54.4395 47.0557 54.35ZM54.5229 54.35C54.4741 54.2605 54.409 54.1922 54.3293 54.1434C54.2479 54.0945 54.1552 54.062 54.0478 54.0441C53.942 54.0278 53.8314 54.0181 53.7175 54.0181H52.938V55.3834H53.7175C53.8314 55.3834 53.942 55.3752 54.0478 55.359C54.1552 55.3411 54.2479 55.3085 54.3293 55.2597C54.409 55.2109 54.4741 55.1409 54.5229 55.0514C54.5717 54.9635 54.5978 54.8464 54.5978 54.7015C54.5978 54.5567 54.5717 54.4395 54.5229 54.35ZM59.5266 54.1694C59.4127 54.0685 59.2402 54.0181 59.0108 54.0181H57.914V55.3004H59.0108C59.2402 55.3004 59.4127 55.2499 59.5266 55.1474C59.6421 55.0465 59.6991 54.8805 59.6991 54.6511C59.6991 54.4216 59.6421 54.2687 59.5266 54.1694ZM65.4497 54.957C65.4041 54.7699 65.3325 54.6023 65.2349 54.4558C65.1372 54.3094 65.0103 54.1922 64.8525 54.1043C64.6946 54.0181 64.5042 53.9741 64.2781 53.9741C64.0519 53.9741 63.8615 54.0181 63.7053 54.1043C63.5474 54.1922 63.4205 54.3094 63.3213 54.4558C63.2236 54.6023 63.1537 54.7699 63.1081 54.957C63.0642 55.1442 63.0414 55.3378 63.0414 55.5363C63.0414 55.7349 63.0642 55.9139 63.1081 56.0945C63.1537 56.2751 63.2236 56.4379 63.3213 56.5827C63.4205 56.7275 63.5474 56.843 63.7053 56.9309C63.8615 57.0172 64.0535 57.0611 64.2781 57.0611C64.5026 57.0611 64.6946 57.0172 64.8525 56.9309C65.0103 56.843 65.1372 56.7275 65.2349 56.5827C65.3325 56.4379 65.4041 56.2751 65.4497 56.0945C65.4936 55.9139 65.5164 55.7284 65.5164 55.5363C65.5164 55.3443 65.4936 55.1442 65.4497 54.957ZM76.0965 54.1694C75.9826 54.0685 75.8101 54.0181 75.5807 54.0181H74.4839V55.3004H75.5807C75.8101 55.3004 75.9826 55.2499 76.0965 55.1474C76.212 55.0465 76.269 54.8805 76.269 54.6511C76.269 54.4216 76.212 54.2687 76.0965 54.1694ZM80.5616 54.3631H80.5485L79.9562 56.0343H81.136L80.5616 54.3631ZM80.5616 54.3631H80.5485L79.9562 56.0343H81.136L80.5616 54.3631ZM76.0965 54.1694C75.9826 54.0685 75.8101 54.0181 75.5807 54.0181H74.4839V55.3004H75.5807C75.8101 55.3004 75.9826 55.2499 76.0965 55.1474C76.212 55.0465 76.269 54.8805 76.269 54.6511C76.269 54.4216 76.212 54.2687 76.0965 54.1694ZM65.4497 54.957C65.4041 54.7699 65.3325 54.6023 65.2349 54.4558C65.1372 54.3094 65.0103 54.1922 64.8525 54.1043C64.6946 54.0181 64.5042 53.9741 64.2781 53.9741C64.0519 53.9741 63.8615 54.0181 63.7053 54.1043C63.5474 54.1922 63.4205 54.3094 63.3213 54.4558C63.2236 54.6023 63.1537 54.7699 63.1081 54.957C63.0642 55.1442 63.0414 55.3378 63.0414 55.5363C63.0414 55.7349 63.0642 55.9139 63.1081 56.0945C63.1537 56.2751 63.2236 56.4379 63.3213 56.5827C63.4205 56.7275 63.5474 56.843 63.7053 56.9309C63.8615 57.0172 64.0535 57.0611 64.2781 57.0611C64.5026 57.0611 64.6946 57.0172 64.8525 56.9309C65.0103 56.843 65.1372 56.7275 65.2349 56.5827C65.3325 56.4379 65.4041 56.2751 65.4497 56.0945C65.4936 55.9139 65.5164 55.7284 65.5164 55.5363C65.5164 55.3443 65.4936 55.1442 65.4497 54.957ZM59.5266 54.1694C59.4127 54.0685 59.2402 54.0181 59.0108 54.0181H57.914V55.3004H59.0108C59.2402 55.3004 59.4127 55.2499 59.5266 55.1474C59.6421 55.0465 59.6991 54.8805 59.6991 54.6511C59.6991 54.4216 59.6421 54.2687 59.5266 54.1694ZM54.5229 54.35C54.4741 54.2605 54.409 54.1922 54.3293 54.1434C54.2479 54.0945 54.1552 54.062 54.0478 54.0441C53.942 54.0278 53.8314 54.0181 53.7175 54.0181H52.938V55.3834H53.7175C53.8314 55.3834 53.942 55.3752 54.0478 55.359C54.1552 55.3411 54.2479 55.3085 54.3293 55.2597C54.409 55.2109 54.4741 55.1409 54.5229 55.0514C54.5717 54.9635 54.5978 54.8464 54.5978 54.7015C54.5978 54.5567 54.5717 54.4395 54.5229 54.35ZM47.0557 54.35C47.0052 54.2605 46.9417 54.1922 46.8604 54.1434C46.779 54.0945 46.6863 54.062 46.5805 54.0441C46.4731 54.0278 46.3625 54.0181 46.2486 54.0181H45.4707V55.3834H46.2486C46.3625 55.3834 46.4731 55.3752 46.5805 55.359C46.6863 55.3411 46.779 55.3085 46.8604 55.2597C46.9417 55.2109 47.0052 55.1409 47.0557 55.0514C47.1045 54.9635 47.1289 54.8464 47.1289 54.7015C47.1289 54.5567 47.1045 54.4395 47.0557 54.35ZM23.4025 54.1694C23.287 54.0685 23.1145 54.0181 22.8851 54.0181H21.7883V55.3004H22.8851C23.1145 55.3004 23.287 55.2499 23.4025 55.1474C23.5164 55.0465 23.575 54.8805 23.575 54.6511C23.575 54.4216 23.5164 54.2687 23.4025 54.1694ZM91.2458 51.0678H1.42376C0.709414 51.0678 0.130127 51.6471 0.130127 52.3631V58.7047C0.130127 59.4191 0.709414 60 1.42376 60H91.2458C91.9602 60 92.5395 59.4191 92.5395 58.7047V52.3631C92.5395 51.6471 91.9602 51.0678 91.2458 51.0678ZM4.26813 57.795H3.26739V53.2402H4.26813V57.795ZM9.7144 57.795H8.71367L6.81959 54.7455H6.80658V57.795H5.8693V53.2402H6.86353L8.76411 56.2963H8.77713V53.2402H9.7144V57.795ZM14.6904 54.0832H13.3252V57.795H12.3244V54.0832H10.9592V53.2402H14.6904V54.0832ZM19.3898 57.795H15.9336V53.2402H19.3394V54.0832H16.9343V55.0579H19.1425V55.8374H16.9343V56.9521H19.3898V57.795ZM23.7084 57.795C23.6531 57.6502 23.6189 57.4777 23.6059 57.2775C23.5929 57.079 23.575 56.887 23.549 56.7047C23.5148 56.4655 23.4432 56.2914 23.3325 56.1807C23.2219 56.0701 23.0413 56.0148 22.7907 56.0148H21.7883V57.795H20.7876V53.2402H23.243C23.4464 53.2402 23.6303 53.2744 23.7947 53.3395C23.959 53.4062 24.099 53.4957 24.2161 53.6112C24.3316 53.7252 24.4211 53.8586 24.483 54.0099C24.5448 54.1596 24.5757 54.3224 24.5757 54.4965C24.5757 54.765 24.5188 54.9977 24.4065 55.193C24.2942 55.3882 24.1103 55.5363 23.8549 55.6389V55.6519C23.9785 55.686 24.0811 55.7381 24.1608 55.8081C24.2421 55.8781 24.3072 55.9611 24.3593 56.0571C24.4097 56.1531 24.4472 56.2572 24.47 56.3728C24.4944 56.4867 24.509 56.6022 24.5188 56.7161C24.522 56.7893 24.5269 56.874 24.5318 56.9716C24.535 57.0692 24.5432 57.1701 24.5529 57.271C24.5643 57.3735 24.5806 57.4712 24.605 57.5623C24.6278 57.6534 24.6636 57.7316 24.7092 57.795H23.7084ZM29.9585 57.795H28.9578L27.0637 54.7455H27.0507V57.795H26.1134V53.2402H27.1077L29.0082 56.2963H29.0213V53.2402H29.9585V57.795ZM34.985 57.0237C34.9036 57.2011 34.7832 57.3556 34.6238 57.4858C34.4643 57.616 34.2674 57.7169 34.0314 57.7885C33.7955 57.8601 33.5221 57.8975 33.2113 57.8975C32.9607 57.8975 32.7167 57.8666 32.4807 57.8048C32.2448 57.7429 32.0365 57.6453 31.8559 57.5135C31.6752 57.3817 31.5321 57.2141 31.4263 57.0107C31.3189 56.8056 31.2684 56.5632 31.2733 56.2833H32.2415C32.2415 56.4362 32.2692 56.5664 32.3245 56.6722C32.3798 56.778 32.4531 56.8642 32.5458 56.9309C32.6369 56.996 32.7443 57.0448 32.868 57.0774C32.99 57.1083 33.1186 57.1246 33.2504 57.1246C33.3399 57.1246 33.4343 57.1181 33.5368 57.1034C33.6393 57.0871 33.7353 57.0595 33.8232 57.0172C33.9127 56.9749 33.9875 56.9163 34.0477 56.8414C34.1063 56.7666 34.1356 56.6722 34.1356 56.5566C34.1356 56.4346 34.0965 56.3337 34.0184 56.2572C33.9403 56.1807 33.8362 56.1173 33.7093 56.0668C33.5807 56.0148 33.4375 55.9708 33.2748 55.9318C33.1137 55.8943 32.9494 55.852 32.785 55.8048C32.6141 55.7625 32.4482 55.7105 32.2871 55.6486C32.1244 55.5868 31.9812 55.507 31.8526 55.4094C31.7257 55.3118 31.6216 55.1897 31.5434 55.0433C31.4653 54.8952 31.4263 54.7178 31.4263 54.5095C31.4263 54.2768 31.4751 54.0734 31.576 53.9009C31.6752 53.7284 31.8054 53.5852 31.9681 53.4697C32.1292 53.3558 32.3115 53.2711 32.5165 53.2158C32.7199 53.1605 32.9249 53.1328 33.1283 53.1328C33.3675 53.1328 33.5954 53.1589 33.815 53.2126C34.0331 53.2646 34.2283 53.3509 34.3976 53.4697C34.5684 53.5901 34.7035 53.7414 34.8027 53.9269C34.902 54.1108 34.9525 54.3354 34.9525 54.599H33.9826C33.9745 54.4623 33.9452 54.35 33.898 54.2605C33.8476 54.171 33.7841 54.1011 33.7028 54.0506C33.6214 54.0002 33.5286 53.9644 33.4245 53.9416C33.3204 53.9204 33.2065 53.9107 33.0844 53.9107C33.0031 53.9107 32.9217 53.9188 32.842 53.9351C32.7606 53.953 32.6874 53.9823 32.6223 54.0246C32.5556 54.0685 32.5019 54.1206 32.4596 54.184C32.4156 54.2491 32.3945 54.3289 32.3945 54.4265C32.3945 54.516 32.4124 54.5892 32.4465 54.6446C32.4807 54.6999 32.5474 54.7503 32.6467 54.7975C32.7476 54.8431 32.8859 54.8903 33.0616 54.9375C33.2374 54.9847 33.4684 55.0433 33.7532 55.1165C33.8394 55.1328 33.9566 55.1637 34.1079 55.2076C34.2593 55.2532 34.409 55.3248 34.557 55.4224C34.7067 55.5201 34.8353 55.6502 34.9427 55.8146C35.0517 55.9773 35.1054 56.1872 35.1054 56.4427C35.1054 56.651 35.0647 56.8447 34.985 57.0237ZM40.2653 57.795H39.2646V55.8309H37.4209V57.795H36.4202V53.2402H37.4209V54.9879H39.2646V53.2402H40.2653V57.795ZM42.8672 57.795H41.8665V53.2402H42.8672V57.795ZM48.0125 55.2402C47.9539 55.4175 47.8627 55.5738 47.7375 55.7088C47.6122 55.8455 47.4494 55.9545 47.2493 56.0375C47.0491 56.1205 46.8067 56.1612 46.5219 56.1612H45.4707V57.795H44.4684V53.2402H46.5219C46.8067 53.2402 47.0491 53.2825 47.2493 53.3655C47.4494 53.4485 47.6122 53.5575 47.7375 53.6942C47.8627 53.8293 47.9539 53.9855 48.0125 54.1596C48.0694 54.3338 48.0971 54.5144 48.0971 54.7015C48.0971 54.8887 48.0694 55.0644 48.0125 55.2402ZM55.4797 55.2402C55.4228 55.4175 55.3316 55.5738 55.2064 55.7088C55.0811 55.8455 54.9183 55.9545 54.7182 56.0375C54.518 56.1205 54.2756 56.1612 53.9908 56.1612H52.938V57.795H51.9373V53.2402H53.9908C54.2756 53.2402 54.518 53.2825 54.7182 53.3655C54.9183 53.4485 55.0811 53.5575 55.2064 53.6942C55.3316 53.8293 55.4228 53.9855 55.4797 54.1596C55.5383 54.3338 55.566 54.5144 55.566 54.7015C55.566 54.8887 55.5383 55.0644 55.4797 55.2402ZM59.8325 57.795C59.7772 57.6502 59.7446 57.4777 59.7316 57.2775C59.7186 57.079 59.6991 56.887 59.673 56.7047C59.6405 56.4655 59.5673 56.2914 59.4566 56.1807C59.346 56.0701 59.1654 56.0148 58.9148 56.0148H57.914V57.795H56.9117V53.2402H59.3671C59.5722 53.2402 59.756 53.2744 59.9188 53.3395C60.0831 53.4062 60.223 53.4957 60.3402 53.6112C60.4574 53.7252 60.5469 53.8586 60.6087 54.0099C60.6705 54.1596 60.7014 54.3224 60.7014 54.4965C60.7014 54.765 60.6445 54.9977 60.5322 55.193C60.4183 55.3882 60.2344 55.5363 59.9806 55.6389V55.6519C60.1026 55.686 60.2051 55.7381 60.2865 55.8081C60.3662 55.8781 60.433 55.9611 60.4834 56.0571C60.5355 56.1531 60.5713 56.2572 60.5957 56.3728C60.6185 56.4867 60.6347 56.6022 60.6429 56.7161C60.6477 56.7893 60.6526 56.874 60.6559 56.9716C60.6608 57.0692 60.6673 57.1701 60.6787 57.271C60.6884 57.3735 60.7063 57.4712 60.7291 57.5623C60.7535 57.6534 60.7877 57.7316 60.8349 57.795H59.8325ZM66.3641 56.4655C66.2616 56.7519 66.1152 57.0025 65.9248 57.2141C65.7328 57.4272 65.4985 57.5932 65.2218 57.7153C64.9468 57.8357 64.6312 57.8975 64.2781 57.8975C63.925 57.8975 63.6158 57.8357 63.3375 57.7153C63.0593 57.5932 62.825 57.4272 62.6329 57.2141C62.4426 57.0025 62.2945 56.7519 62.1936 56.4655C62.0911 56.1775 62.0406 55.8683 62.0406 55.5363C62.0406 55.2044 62.0911 54.8805 62.1936 54.5892C62.2945 54.298 62.4426 54.0441 62.6329 53.8277C62.825 53.6112 63.0593 53.4404 63.3375 53.3167C63.6158 53.1947 63.9298 53.1328 64.2781 53.1328C64.6263 53.1328 64.9468 53.1947 65.2218 53.3167C65.4985 53.4404 65.7328 53.6112 65.9248 53.8277C66.1152 54.0441 66.2616 54.298 66.3641 54.5892C66.4667 54.8805 66.5171 55.1962 66.5171 55.5363C66.5171 55.8764 66.4667 56.1775 66.3641 56.4655ZM71.952 57.795H71.3141L71.2116 57.2775C71.0326 57.507 70.8357 57.6681 70.6193 57.7592C70.4013 57.8503 70.1832 57.8975 69.9619 57.8975C69.6121 57.8975 69.2996 57.8357 69.0214 57.7153C68.7415 57.5932 68.5072 57.4272 68.3152 57.2141C68.1248 57.0025 67.9783 56.7519 67.8758 56.4655C67.7733 56.1775 67.7229 55.8683 67.7229 55.5363C67.7229 55.2044 67.7733 54.8805 67.8758 54.5892C67.9783 54.298 68.1248 54.0441 68.3152 53.8277C68.5072 53.6112 68.7415 53.4404 69.0214 53.3167C69.2996 53.1947 69.6121 53.1328 69.9619 53.1328C70.1946 53.1328 70.4224 53.167 70.6405 53.237C70.8601 53.3069 71.057 53.4111 71.2344 53.5461C71.4101 53.6828 71.5566 53.8505 71.6705 54.0506C71.786 54.2508 71.856 54.4802 71.882 54.739H70.9252C70.865 54.4851 70.7495 54.2931 70.5802 54.1661C70.4094 54.0376 70.2044 53.9741 69.9619 53.9741C69.7357 53.9741 69.5453 54.0181 69.3875 54.1043C69.2297 54.1922 69.1027 54.3094 69.0051 54.4558C68.9075 54.6023 68.8359 54.7699 68.7903 54.957C68.7464 55.1442 68.7236 55.3378 68.7236 55.5363C68.7236 55.7349 68.7464 55.9139 68.7903 56.0945C68.8359 56.2751 68.9075 56.4379 69.0051 56.5827C69.1027 56.7275 69.2297 56.843 69.3875 56.9309C69.5453 57.0172 69.7357 57.0611 69.9619 57.0611C70.2939 57.0611 70.5493 56.9781 70.73 56.8089C70.9106 56.6413 71.0163 56.3972 71.0456 56.0782H70.0384V55.3329H71.952V57.795ZM76.4024 57.795C76.3487 57.6502 76.3145 57.4777 76.3015 57.2775C76.2885 57.079 76.269 56.887 76.2446 56.7047C76.2104 56.4655 76.1372 56.2914 76.0265 56.1807C75.9159 56.0701 75.7353 56.0148 75.4847 56.0148H74.4839V57.795H73.4816V53.2402H75.937C76.1421 53.2402 76.3259 53.2744 76.4887 53.3395C76.653 53.4062 76.7929 53.4957 76.9101 53.6112C77.0273 53.7252 77.1168 53.8586 77.1786 54.0099C77.2404 54.1596 77.2713 54.3224 77.2713 54.4965C77.2713 54.765 77.2144 54.9977 77.1021 55.193C76.9882 55.3882 76.8043 55.5363 76.5505 55.6389V55.6519C76.6725 55.686 76.775 55.7381 76.8564 55.8081C76.9361 55.8781 77.0029 55.9611 77.0533 56.0571C77.1054 56.1531 77.1412 56.2572 77.1656 56.3728C77.1884 56.4867 77.2046 56.6022 77.2128 56.7161C77.2176 56.7893 77.2225 56.874 77.2258 56.9716C77.2307 57.0692 77.2372 57.1701 77.2486 57.271C77.2583 57.3735 77.2762 57.4712 77.299 57.5623C77.3234 57.6534 77.3576 57.7316 77.4048 57.795H76.4024ZM81.7413 57.795L81.398 56.7812H79.6943L79.3379 57.795H78.329L80.0506 53.2402H81.079L82.7811 57.795H81.7413ZM88.8018 57.795H87.8645V54.5681H87.8515L86.7352 57.795H85.9639L84.8476 54.599H84.8346V57.795H83.8974V53.2402H85.3065L86.3723 56.3728H86.3854L87.3926 53.2402H88.8018V57.795ZM80.5485 54.3631L79.9562 56.0343H81.136L80.5616 54.3631H80.5485ZM75.5807 54.0181H74.4839V55.3004H75.5807C75.8101 55.3004 75.9826 55.2499 76.0965 55.1474C76.212 55.0465 76.269 54.8805 76.269 54.6511C76.269 54.4216 76.212 54.2687 76.0965 54.1694C75.9826 54.0685 75.8101 54.0181 75.5807 54.0181ZM65.2349 54.4558C65.1372 54.3094 65.0103 54.1922 64.8525 54.1043C64.6946 54.0181 64.5042 53.9741 64.2781 53.9741C64.0519 53.9741 63.8615 54.0181 63.7053 54.1043C63.5474 54.1922 63.4205 54.3094 63.3213 54.4558C63.2236 54.6023 63.1537 54.7699 63.1081 54.957C63.0642 55.1442 63.0414 55.3378 63.0414 55.5363C63.0414 55.7349 63.0642 55.9139 63.1081 56.0945C63.1537 56.2751 63.2236 56.4379 63.3213 56.5827C63.4205 56.7275 63.5474 56.843 63.7053 56.9309C63.8615 57.0172 64.0535 57.0611 64.2781 57.0611C64.5026 57.0611 64.6946 57.0172 64.8525 56.9309C65.0103 56.843 65.1372 56.7275 65.2349 56.5827C65.3325 56.4379 65.4041 56.2751 65.4497 56.0945C65.4936 55.9139 65.5164 55.7284 65.5164 55.5363C65.5164 55.3443 65.4936 55.1442 65.4497 54.957C65.4041 54.7699 65.3325 54.6023 65.2349 54.4558ZM59.0108 54.0181H57.914V55.3004H59.0108C59.2402 55.3004 59.4127 55.2499 59.5266 55.1474C59.6421 55.0465 59.6991 54.8805 59.6991 54.6511C59.6991 54.4216 59.6421 54.2687 59.5266 54.1694C59.4127 54.0685 59.2402 54.0181 59.0108 54.0181ZM54.3293 54.1434C54.2479 54.0945 54.1552 54.062 54.0478 54.0441C53.942 54.0278 53.8314 54.0181 53.7175 54.0181H52.938V55.3834H53.7175C53.8314 55.3834 53.942 55.3752 54.0478 55.359C54.1552 55.3411 54.2479 55.3085 54.3293 55.2597C54.409 55.2109 54.4741 55.1409 54.5229 55.0514C54.5717 54.9635 54.5978 54.8464 54.5978 54.7015C54.5978 54.5567 54.5717 54.4395 54.5229 54.35C54.4741 54.2605 54.409 54.1922 54.3293 54.1434ZM46.8604 54.1434C46.779 54.0945 46.6863 54.062 46.5805 54.0441C46.4731 54.0278 46.3625 54.0181 46.2486 54.0181H45.4707V55.3834H46.2486C46.3625 55.3834 46.4731 55.3752 46.5805 55.359C46.6863 55.3411 46.779 55.3085 46.8604 55.2597C46.9417 55.2109 47.0052 55.1409 47.0557 55.0514C47.1045 54.9635 47.1289 54.8464 47.1289 54.7015C47.1289 54.5567 47.1045 54.4395 47.0557 54.35C47.0052 54.2605 46.9417 54.1922 46.8604 54.1434ZM22.8851 54.0181H21.7883V55.3004H22.8851C23.1145 55.3004 23.287 55.2499 23.4025 55.1474C23.5164 55.0465 23.575 54.8805 23.575 54.6511C23.575 54.4216 23.5164 54.2687 23.4025 54.1694C23.287 54.0685 23.1145 54.0181 22.8851 54.0181ZM23.4025 54.1694C23.287 54.0685 23.1145 54.0181 22.8851 54.0181H21.7883V55.3004H22.8851C23.1145 55.3004 23.287 55.2499 23.4025 55.1474C23.5164 55.0465 23.575 54.8805 23.575 54.6511C23.575 54.4216 23.5164 54.2687 23.4025 54.1694ZM47.0557 54.35C47.0052 54.2605 46.9417 54.1922 46.8604 54.1434C46.779 54.0945 46.6863 54.062 46.5805 54.0441C46.4731 54.0278 46.3625 54.0181 46.2486 54.0181H45.4707V55.3834H46.2486C46.3625 55.3834 46.4731 55.3752 46.5805 55.359C46.6863 55.3411 46.779 55.3085 46.8604 55.2597C46.9417 55.2109 47.0052 55.1409 47.0557 55.0514C47.1045 54.9635 47.1289 54.8464 47.1289 54.7015C47.1289 54.5567 47.1045 54.4395 47.0557 54.35ZM54.5229 54.35C54.4741 54.2605 54.409 54.1922 54.3293 54.1434C54.2479 54.0945 54.1552 54.062 54.0478 54.0441C53.942 54.0278 53.8314 54.0181 53.7175 54.0181H52.938V55.3834H53.7175C53.8314 55.3834 53.942 55.3752 54.0478 55.359C54.1552 55.3411 54.2479 55.3085 54.3293 55.2597C54.409 55.2109 54.4741 55.1409 54.5229 55.0514C54.5717 54.9635 54.5978 54.8464 54.5978 54.7015C54.5978 54.5567 54.5717 54.4395 54.5229 54.35ZM59.5266 54.1694C59.4127 54.0685 59.2402 54.0181 59.0108 54.0181H57.914V55.3004H59.0108C59.2402 55.3004 59.4127 55.2499 59.5266 55.1474C59.6421 55.0465 59.6991 54.8805 59.6991 54.6511C59.6991 54.4216 59.6421 54.2687 59.5266 54.1694ZM65.4497 54.957C65.4041 54.7699 65.3325 54.6023 65.2349 54.4558C65.1372 54.3094 65.0103 54.1922 64.8525 54.1043C64.6946 54.0181 64.5042 53.9741 64.2781 53.9741C64.0519 53.9741 63.8615 54.0181 63.7053 54.1043C63.5474 54.1922 63.4205 54.3094 63.3213 54.4558C63.2236 54.6023 63.1537 54.7699 63.1081 54.957C63.0642 55.1442 63.0414 55.3378 63.0414 55.5363C63.0414 55.7349 63.0642 55.9139 63.1081 56.0945C63.1537 56.2751 63.2236 56.4379 63.3213 56.5827C63.4205 56.7275 63.5474 56.843 63.7053 56.9309C63.8615 57.0172 64.0535 57.0611 64.2781 57.0611C64.5026 57.0611 64.6946 57.0172 64.8525 56.9309C65.0103 56.843 65.1372 56.7275 65.2349 56.5827C65.3325 56.4379 65.4041 56.2751 65.4497 56.0945C65.4936 55.9139 65.5164 55.7284 65.5164 55.5363C65.5164 55.3443 65.4936 55.1442 65.4497 54.957ZM76.0965 54.1694C75.9826 54.0685 75.8101 54.0181 75.5807 54.0181H74.4839V55.3004H75.5807C75.8101 55.3004 75.9826 55.2499 76.0965 55.1474C76.212 55.0465 76.269 54.8805 76.269 54.6511C76.269 54.4216 76.212 54.2687 76.0965 54.1694ZM76.0965 54.1694C75.9826 54.0685 75.8101 54.0181 75.5807 54.0181H74.4839V55.3004H75.5807C75.8101 55.3004 75.9826 55.2499 76.0965 55.1474C76.212 55.0465 76.269 54.8805 76.269 54.6511C76.269 54.4216 76.212 54.2687 76.0965 54.1694ZM65.4497 54.957C65.4041 54.7699 65.3325 54.6023 65.2349 54.4558C65.1372 54.3094 65.0103 54.1922 64.8525 54.1043C64.6946 54.0181 64.5042 53.9741 64.2781 53.9741C64.0519 53.9741 63.8615 54.0181 63.7053 54.1043C63.5474 54.1922 63.4205 54.3094 63.3213 54.4558C63.2236 54.6023 63.1537 54.7699 63.1081 54.957C63.0642 55.1442 63.0414 55.3378 63.0414 55.5363C63.0414 55.7349 63.0642 55.9139 63.1081 56.0945C63.1537 56.2751 63.2236 56.4379 63.3213 56.5827C63.4205 56.7275 63.5474 56.843 63.7053 56.9309C63.8615 57.0172 64.0535 57.0611 64.2781 57.0611C64.5026 57.0611 64.6946 57.0172 64.8525 56.9309C65.0103 56.843 65.1372 56.7275 65.2349 56.5827C65.3325 56.4379 65.4041 56.2751 65.4497 56.0945C65.4936 55.9139 65.5164 55.7284 65.5164 55.5363C65.5164 55.3443 65.4936 55.1442 65.4497 54.957ZM59.5266 54.1694C59.4127 54.0685 59.2402 54.0181 59.0108 54.0181H57.914V55.3004H59.0108C59.2402 55.3004 59.4127 55.2499 59.5266 55.1474C59.6421 55.0465 59.6991 54.8805 59.6991 54.6511C59.6991 54.4216 59.6421 54.2687 59.5266 54.1694ZM54.5229 54.35C54.4741 54.2605 54.409 54.1922 54.3293 54.1434C54.2479 54.0945 54.1552 54.062 54.0478 54.0441C53.942 54.0278 53.8314 54.0181 53.7175 54.0181H52.938V55.3834H53.7175C53.8314 55.3834 53.942 55.3752 54.0478 55.359C54.1552 55.3411 54.2479 55.3085 54.3293 55.2597C54.409 55.2109 54.4741 55.1409 54.5229 55.0514C54.5717 54.9635 54.5978 54.8464 54.5978 54.7015C54.5978 54.5567 54.5717 54.4395 54.5229 54.35ZM47.0557 54.35C47.0052 54.2605 46.9417 54.1922 46.8604 54.1434C46.779 54.0945 46.6863 54.062 46.5805 54.0441C46.4731 54.0278 46.3625 54.0181 46.2486 54.0181H45.4707V55.3834H46.2486C46.3625 55.3834 46.4731 55.3752 46.5805 55.359C46.6863 55.3411 46.779 55.3085 46.8604 55.2597C46.9417 55.2109 47.0052 55.1409 47.0557 55.0514C47.1045 54.9635 47.1289 54.8464 47.1289 54.7015C47.1289 54.5567 47.1045 54.4395 47.0557 54.35ZM23.4025 54.1694C23.287 54.0685 23.1145 54.0181 22.8851 54.0181H21.7883V55.3004H22.8851C23.1145 55.3004 23.287 55.2499 23.4025 55.1474C23.5164 55.0465 23.575 54.8805 23.575 54.6511C23.575 54.4216 23.5164 54.2687 23.4025 54.1694ZM23.4025 54.1694C23.287 54.0685 23.1145 54.0181 22.8851 54.0181H21.7883V55.3004H22.8851C23.1145 55.3004 23.287 55.2499 23.4025 55.1474C23.5164 55.0465 23.575 54.8805 23.575 54.6511C23.575 54.4216 23.5164 54.2687 23.4025 54.1694ZM47.0557 54.35C47.0052 54.2605 46.9417 54.1922 46.8604 54.1434C46.779 54.0945 46.6863 54.062 46.5805 54.0441C46.4731 54.0278 46.3625 54.0181 46.2486 54.0181H45.4707V55.3834H46.2486C46.3625 55.3834 46.4731 55.3752 46.5805 55.359C46.6863 55.3411 46.779 55.3085 46.8604 55.2597C46.9417 55.2109 47.0052 55.1409 47.0557 55.0514C47.1045 54.9635 47.1289 54.8464 47.1289 54.7015C47.1289 54.5567 47.1045 54.4395 47.0557 54.35ZM54.5229 54.35C54.4741 54.2605 54.409 54.1922 54.3293 54.1434C54.2479 54.0945 54.1552 54.062 54.0478 54.0441C53.942 54.0278 53.8314 54.0181 53.7175 54.0181H52.938V55.3834H53.7175C53.8314 55.3834 53.942 55.3752 54.0478 55.359C54.1552 55.3411 54.2479 55.3085 54.3293 55.2597C54.409 55.2109 54.4741 55.1409 54.5229 55.0514C54.5717 54.9635 54.5978 54.8464 54.5978 54.7015C54.5978 54.5567 54.5717 54.4395 54.5229 54.35ZM59.5266 54.1694C59.4127 54.0685 59.2402 54.0181 59.0108 54.0181H57.914V55.3004H59.0108C59.2402 55.3004 59.4127 55.2499 59.5266 55.1474C59.6421 55.0465 59.6991 54.8805 59.6991 54.6511C59.6991 54.4216 59.6421 54.2687 59.5266 54.1694ZM65.4497 54.957C65.4041 54.7699 65.3325 54.6023 65.2349 54.4558C65.1372 54.3094 65.0103 54.1922 64.8525 54.1043C64.6946 54.0181 64.5042 53.9741 64.2781 53.9741C64.0519 53.9741 63.8615 54.0181 63.7053 54.1043C63.5474 54.1922 63.4205 54.3094 63.3213 54.4558C63.2236 54.6023 63.1537 54.7699 63.1081 54.957C63.0642 55.1442 63.0414 55.3378 63.0414 55.5363C63.0414 55.7349 63.0642 55.9139 63.1081 56.0945C63.1537 56.2751 63.2236 56.4379 63.3213 56.5827C63.4205 56.7275 63.5474 56.843 63.7053 56.9309C63.8615 57.0172 64.0535 57.0611 64.2781 57.0611C64.5026 57.0611 64.6946 57.0172 64.8525 56.9309C65.0103 56.843 65.1372 56.7275 65.2349 56.5827C65.3325 56.4379 65.4041 56.2751 65.4497 56.0945C65.4936 55.9139 65.5164 55.7284 65.5164 55.5363C65.5164 55.3443 65.4936 55.1442 65.4497 54.957ZM65.4497 54.957C65.4041 54.7699 65.3325 54.6023 65.2349 54.4558C65.1372 54.3094 65.0103 54.1922 64.8525 54.1043C64.6946 54.0181 64.5042 53.9741 64.2781 53.9741C64.0519 53.9741 63.8615 54.0181 63.7053 54.1043C63.5474 54.1922 63.4205 54.3094 63.3213 54.4558C63.2236 54.6023 63.1537 54.7699 63.1081 54.957C63.0642 55.1442 63.0414 55.3378 63.0414 55.5363C63.0414 55.7349 63.0642 55.9139 63.1081 56.0945C63.1537 56.2751 63.2236 56.4379 63.3213 56.5827C63.4205 56.7275 63.5474 56.843 63.7053 56.9309C63.8615 57.0172 64.0535 57.0611 64.2781 57.0611C64.5026 57.0611 64.6946 57.0172 64.8525 56.9309C65.0103 56.843 65.1372 56.7275 65.2349 56.5827C65.3325 56.4379 65.4041 56.2751 65.4497 56.0945C65.4936 55.9139 65.5164 55.7284 65.5164 55.5363C65.5164 55.3443 65.4936 55.1442 65.4497 54.957ZM59.5266 54.1694C59.4127 54.0685 59.2402 54.0181 59.0108 54.0181H57.914V55.3004H59.0108C59.2402 55.3004 59.4127 55.2499 59.5266 55.1474C59.6421 55.0465 59.6991 54.8805 59.6991 54.6511C59.6991 54.4216 59.6421 54.2687 59.5266 54.1694ZM54.5229 54.35C54.4741 54.2605 54.409 54.1922 54.3293 54.1434C54.2479 54.0945 54.1552 54.062 54.0478 54.0441C53.942 54.0278 53.8314 54.0181 53.7175 54.0181H52.938V55.3834H53.7175C53.8314 55.3834 53.942 55.3752 54.0478 55.359C54.1552 55.3411 54.2479 55.3085 54.3293 55.2597C54.409 55.2109 54.4741 55.1409 54.5229 55.0514C54.5717 54.9635 54.5978 54.8464 54.5978 54.7015C54.5978 54.5567 54.5717 54.4395 54.5229 54.35ZM47.0557 54.35C47.0052 54.2605 46.9417 54.1922 46.8604 54.1434C46.779 54.0945 46.6863 54.062 46.5805 54.0441C46.4731 54.0278 46.3625 54.0181 46.2486 54.0181H45.4707V55.3834H46.2486C46.3625 55.3834 46.4731 55.3752 46.5805 55.359C46.6863 55.3411 46.779 55.3085 46.8604 55.2597C46.9417 55.2109 47.0052 55.1409 47.0557 55.0514C47.1045 54.9635 47.1289 54.8464 47.1289 54.7015C47.1289 54.5567 47.1045 54.4395 47.0557 54.35ZM23.4025 54.1694C23.287 54.0685 23.1145 54.0181 22.8851 54.0181H21.7883V55.3004H22.8851C23.1145 55.3004 23.287 55.2499 23.4025 55.1474C23.5164 55.0465 23.575 54.8805 23.575 54.6511C23.575 54.4216 23.5164 54.2687 23.4025 54.1694ZM23.4025 54.1694C23.287 54.0685 23.1145 54.0181 22.8851 54.0181H21.7883V55.3004H22.8851C23.1145 55.3004 23.287 55.2499 23.4025 55.1474C23.5164 55.0465 23.575 54.8805 23.575 54.6511C23.575 54.4216 23.5164 54.2687 23.4025 54.1694ZM47.0557 54.35C47.0052 54.2605 46.9417 54.1922 46.8604 54.1434C46.779 54.0945 46.6863 54.062 46.5805 54.0441C46.4731 54.0278 46.3625 54.0181 46.2486 54.0181H45.4707V55.3834H46.2486C46.3625 55.3834 46.4731 55.3752 46.5805 55.359C46.6863 55.3411 46.779 55.3085 46.8604 55.2597C46.9417 55.2109 47.0052 55.1409 47.0557 55.0514C47.1045 54.9635 47.1289 54.8464 47.1289 54.7015C47.1289 54.5567 47.1045 54.4395 47.0557 54.35ZM54.5229 54.35C54.4741 54.2605 54.409 54.1922 54.3293 54.1434C54.2479 54.0945 54.1552 54.062 54.0478 54.0441C53.942 54.0278 53.8314 54.0181 53.7175 54.0181H52.938V55.3834H53.7175C53.8314 55.3834 53.942 55.3752 54.0478 55.359C54.1552 55.3411 54.2479 55.3085 54.3293 55.2597C54.409 55.2109 54.4741 55.1409 54.5229 55.0514C54.5717 54.9635 54.5978 54.8464 54.5978 54.7015C54.5978 54.5567 54.5717 54.4395 54.5229 54.35ZM54.5229 54.35C54.4741 54.2605 54.409 54.1922 54.3293 54.1434C54.2479 54.0945 54.1552 54.062 54.0478 54.0441C53.942 54.0278 53.8314 54.0181 53.7175 54.0181H52.938V55.3834H53.7175C53.8314 55.3834 53.942 55.3752 54.0478 55.359C54.1552 55.3411 54.2479 55.3085 54.3293 55.2597C54.409 55.2109 54.4741 55.1409 54.5229 55.0514C54.5717 54.9635 54.5978 54.8464 54.5978 54.7015C54.5978 54.5567 54.5717 54.4395 54.5229 54.35ZM47.0557 54.35C47.0052 54.2605 46.9417 54.1922 46.8604 54.1434C46.779 54.0945 46.6863 54.062 46.5805 54.0441C46.4731 54.0278 46.3625 54.0181 46.2486 54.0181H45.4707V55.3834H46.2486C46.3625 55.3834 46.4731 55.3752 46.5805 55.359C46.6863 55.3411 46.779 55.3085 46.8604 55.2597C46.9417 55.2109 47.0052 55.1409 47.0557 55.0514C47.1045 54.9635 47.1289 54.8464 47.1289 54.7015C47.1289 54.5567 47.1045 54.4395 47.0557 54.35ZM23.4025 54.1694C23.287 54.0685 23.1145 54.0181 22.8851 54.0181H21.7883V55.3004H22.8851C23.1145 55.3004 23.287 55.2499 23.4025 55.1474C23.5164 55.0465 23.575 54.8805 23.575 54.6511C23.575 54.4216 23.5164 54.2687 23.4025 54.1694ZM23.4025 54.1694C23.287 54.0685 23.1145 54.0181 22.8851 54.0181H21.7883V55.3004H22.8851C23.1145 55.3004 23.287 55.2499 23.4025 55.1474C23.5164 55.0465 23.575 54.8805 23.575 54.6511C23.575 54.4216 23.5164 54.2687 23.4025 54.1694ZM23.4025 54.1694C23.287 54.0685 23.1145 54.0181 22.8851 54.0181H21.7883V55.3004H22.8851C23.1145 55.3004 23.287 55.2499 23.4025 55.1474C23.5164 55.0465 23.575 54.8805 23.575 54.6511C23.575 54.4216 23.5164 54.2687 23.4025 54.1694ZM23.4025 54.1694C23.287 54.0685 23.1145 54.0181 22.8851 54.0181H21.7883V55.3004H22.8851C23.1145 55.3004 23.287 55.2499 23.4025 55.1474C23.5164 55.0465 23.575 54.8805 23.575 54.6511C23.575 54.4216 23.5164 54.2687 23.4025 54.1694ZM23.4025 54.1694C23.287 54.0685 23.1145 54.0181 22.8851 54.0181H21.7883V55.3004H22.8851C23.1145 55.3004 23.287 55.2499 23.4025 55.1474C23.5164 55.0465 23.575 54.8805 23.575 54.6511C23.575 54.4216 23.5164 54.2687 23.4025 54.1694ZM23.4025 54.1694C23.287 54.0685 23.1145 54.0181 22.8851 54.0181H21.7883V55.3004H22.8851C23.1145 55.3004 23.287 55.2499 23.4025 55.1474C23.5164 55.0465 23.575 54.8805 23.575 54.6511C23.575 54.4216 23.5164 54.2687 23.4025 54.1694ZM23.4025 54.1694C23.287 54.0685 23.1145 54.0181 22.8851 54.0181H21.7883V55.3004H22.8851C23.1145 55.3004 23.287 55.2499 23.4025 55.1474C23.5164 55.0465 23.575 54.8805 23.575 54.6511C23.575 54.4216 23.5164 54.2687 23.4025 54.1694Z" fill="white"></path>
    <path d="M90.9871 25.7617L82.8674 24.167L85.5344 16.3185C86.0079 14.9516 85.6727 13.57 84.4734 12.8784C83.2742 12.1852 81.8975 12.6229 80.9635 13.679L75.501 19.91L70.0384 13.679C69.08 12.6083 67.7196 12.1966 66.5285 12.8784C65.326 13.5668 64.9908 14.9679 65.4676 16.3185L68.1313 24.1637H68.1297L60.0099 25.7601C58.5894 26.0302 57.5577 27.0456 57.5545 28.4321C57.5512 29.8169 58.6154 30.7933 59.9969 31.0781L68.1297 32.6728L65.466 40.5213C64.9924 41.8882 65.3276 43.2698 66.5269 43.963C67.7261 44.6562 69.1028 44.2185 70.0368 43.1624L75.4993 36.9315L80.9619 43.1624C81.9203 44.2331 83.2807 44.6448 84.4718 43.963C85.6743 43.2747 86.0095 41.8736 85.5327 40.5213L82.869 32.6761L91.0018 31.0797C92.3833 30.7966 93.4475 29.8202 93.4442 28.4337C93.441 27.0489 92.4093 26.0335 90.9888 25.7617H90.9871Z" fill="white"></path>
    <path d="M2.7744 6.15931V3.84693C2.7744 3.28063 2.54821 2.90472 2.03239 2.90472C1.51656 2.90472 1.25621 3.36688 1.25621 3.85507V6.15769H0V1.84861H1.18624V2.3368C1.45635 1.86651 1.95428 1.7526 2.3204 1.7526C2.79067 1.7526 3.29673 1.92672 3.57661 2.55486C3.96063 1.97066 4.37069 1.74284 5.00693 1.74284C5.90515 1.74284 6.72527 2.19685 6.72527 3.80136V6.15606H5.46092V3.8274C5.46092 3.28714 5.31285 2.92913 4.80678 2.92913C4.30072 2.92913 4.0127 3.35711 4.0127 3.8453V6.15769H2.7744V6.15931Z" fill="white"></path>
    <path d="M11.7485 3.85506C11.7485 4.04058 11.7306 4.22121 11.6964 4.39533H8.67793C8.7121 4.64593 8.83414 4.84121 9.04405 4.98441C9.25396 5.12761 9.48828 5.19758 9.75026 5.19758C10.1929 5.19758 10.5818 5.06414 10.9186 4.79564L11.5028 5.60766C11.0553 6.03727 10.4467 6.2537 9.68029 6.2537C8.98222 6.2537 8.41107 6.06005 7.96684 5.67438C7.52261 5.28708 7.29968 4.7338 7.29968 4.01291C7.29968 3.29202 7.52749 2.75013 7.98474 2.35144C8.44198 1.95276 8.98873 1.75423 9.62822 1.75423C10.2677 1.75423 10.7673 1.93811 11.1594 2.30751C11.5516 2.6769 11.7485 3.19276 11.7485 3.85506ZM10.214 2.99585C10.0513 2.85265 9.84464 2.78268 9.59405 2.78268C9.34346 2.78268 9.13518 2.85428 8.96595 2.99585C8.79672 3.13905 8.70071 3.34572 8.67793 3.61911H10.4483C10.4548 3.34572 10.3751 3.13743 10.2124 2.99585H10.214Z" fill="white"></path>
    <path d="M13.5888 0.0618362V3.54262L14.863 1.85837H16.3453V1.93648L14.7669 3.8811L16.5894 6.06167V6.15768H15.081L13.5888 4.26514V6.15768H12.3326V0.0618362H13.5888Z" fill="white"></path>
    <path d="M18.7536 1.75423C19.4744 1.75423 20.0195 1.88929 20.3889 2.15942C20.7583 2.42955 20.9422 2.86241 20.9422 3.45475V6.15932H19.738V5.37496C19.6209 5.63695 19.4061 5.84525 19.1441 6.00309C18.8821 6.15932 18.5827 6.23905 18.2459 6.23905C17.8033 6.23905 17.4372 6.11212 17.1475 5.85989C16.8562 5.60766 16.7114 5.26756 16.7114 4.84446C16.7114 4.39695 16.8725 4.04709 17.1963 3.79811C17.5185 3.54751 17.9367 3.4222 18.4477 3.4222C18.8951 3.4222 19.271 3.49706 19.5721 3.6484V3.56052C19.5721 3.04955 19.2401 2.79244 18.5778 2.79244C18.1824 2.79244 17.7463 2.87381 17.2696 3.03654L17.0173 2.08619C17.5755 1.86488 18.1548 1.75423 18.7536 1.75423ZM18.6836 5.18294C18.9212 5.18294 19.1262 5.11947 19.2938 4.99092C19.463 4.86236 19.5639 4.68499 19.5997 4.45879C19.3329 4.31884 19.0448 4.24887 18.7357 4.24887C18.5323 4.24887 18.3712 4.28955 18.2508 4.37092C18.132 4.45228 18.0718 4.57107 18.0718 4.72892C18.0718 4.87375 18.1304 4.98604 18.2459 5.06415C18.3614 5.14226 18.5079 5.18131 18.682 5.18131L18.6836 5.18294Z" fill="white"></path>
    <path d="M22.8526 1.85838V2.32866C23.1406 1.92672 23.5246 1.7526 24.0046 1.7526C24.4147 1.7526 24.7548 1.87465 25.0607 2.14478L24.5367 3.13906C24.3268 2.99097 24.1088 2.921 23.8484 2.921C23.3082 2.921 22.8461 3.26924 22.8461 3.91528V6.15769H21.5898V1.85838H22.8542H22.8526Z" fill="white"></path>
    <path d="M26.7172 0.706249C26.7172 1.64845 25.2869 1.64845 25.2869 0.706249C25.2869 -0.235955 26.7172 -0.235955 26.7172 0.706249ZM25.3731 1.84047V6.15931H26.6293V1.84047H25.3731Z" fill="white"></path>
  </g>
  <defs>
    <clipPath id="clip0_8008_79105">
      <rect width="93.4426" height="60" fill="white"></rect>
    </clipPath>
  </defs>
</svg>
