<?xml version="1.0" encoding="UTF-8"?>
<svg xmlns="http://www.w3.org/2000/svg" width="24" height="24" viewBox="0 0 24 24" fill="none">
  <path d="M11.8338 13.5167V12.1667H13.2198C13.5255 12.1667 13.8004 12.4006 13.8004 12.8417C13.8004 13.2828 13.5255 13.5167 13.2198 13.5167H11.8338Z" fill="#5B37D4"></path>
  <path d="M6.50043 10.8501V9.5H7.88647C8.19219 9.5 8.46709 9.7339 8.46709 10.175C8.46709 10.6162 8.19219 10.8501 7.88647 10.8501H7.56384C7.55448 10.8499 7.5451 10.8499 7.53571 10.8501H6.50043Z" fill="#5B37D4"></path>
  <path fill-rule="evenodd" clip-rule="evenodd" d="M18.7504 12.25L18.7505 3.16421C18.7505 1.60513 16.8655 0.824336 15.7631 1.92678L14.0834 3.6064C13.9955 3.69437 13.8562 3.70427 13.7567 3.62962L11.0505 1.6C10.4283 1.13333 9.57271 1.13333 8.95049 1.6L6.24432 3.62962C6.14479 3.70427 6.00552 3.69437 5.91755 3.6064L4.23793 1.92678C3.13549 0.82434 1.25049 1.60513 1.25049 3.16421V18C1.25049 19.4004 1.67355 20.6087 2.53266 21.4678C3.39177 22.3269 4.60011 22.75 6.00049 22.75H20.0004C20.6316 22.75 21.1549 22.59 21.5726 22.3115C21.9857 22.0361 22.2517 21.6743 22.4211 21.3354C22.5891 20.9993 22.6694 20.6724 22.7088 20.4358C22.7288 20.3157 22.7391 20.214 22.7444 20.1393C22.7471 20.1019 22.7486 20.0709 22.7493 20.0474L22.7501 20.0178L22.7502 15.58C22.7502 14.6294 22.4462 13.7803 21.8331 13.1672C21.2199 12.554 20.3708 12.25 19.4202 12.25H18.7504ZM19.4202 13.75H18.7504L18.7504 20C18.7504 20.2133 18.8205 20.55 19.009 20.8118C19.17 21.0353 19.4448 21.25 20.0004 21.25C20.3691 21.25 20.5958 21.16 20.7406 21.0635C20.89 20.9638 20.999 20.8256 21.0795 20.6646C21.1614 20.5007 21.2062 20.3276 21.2292 20.1892C21.2404 20.1218 21.2458 20.0673 21.2482 20.0325C21.2495 20.0153 21.25 20.0033 21.2502 19.9975L21.2502 19.9952V15.58C21.2502 14.9506 21.0543 14.5097 20.7724 14.2278C20.4905 13.946 20.0497 13.75 19.4202 13.75ZM9.96709 10.175C9.96709 11.0272 9.50475 11.8301 8.73505 12.1741L9.60376 13.715C9.80717 14.0758 9.67957 14.5332 9.31875 14.7367C8.95792 14.9401 8.50051 14.8125 8.2971 14.4517L7.11231 12.3501H6.50043V14.0833C6.50043 14.4975 6.16464 14.8333 5.75043 14.8333C5.33621 14.8333 5.00043 14.4975 5.00043 14.0833V9.35001C5.00043 8.60579 5.60622 8 6.35044 8H7.88647C9.15279 8 9.96709 9.04413 9.96709 10.175ZM13.2198 15.0167H11.8338V16.75C11.8338 17.1642 11.498 17.5 11.0838 17.5C10.6695 17.5 10.3338 17.1642 10.3338 16.75V12.0167C10.3338 11.2725 10.9396 10.6667 11.6838 10.6667H13.2198C14.4861 10.6667 15.3004 11.7108 15.3004 12.8417C15.3004 13.9726 14.4861 15.0167 13.2198 15.0167Z" fill="#5B37D4"></path>
  <path fill-rule="evenodd" clip-rule="evenodd" d="M6.50043 9.5V10.8501H7.53571C7.5451 10.8499 7.55448 10.8499 7.56384 10.8501H7.88647C8.19219 10.8501 8.46709 10.6162 8.46709 10.175C8.46709 9.7339 8.19219 9.5 7.88647 9.5H6.50043ZM11.8338 13.5167V12.1667H13.2198C13.5255 12.1667 13.8004 12.4006 13.8004 12.8417C13.8004 13.2828 13.5255 13.5167 13.2198 13.5167H11.8338Z" fill="#5B37D4"></path>
</svg>
