<?xml version="1.0" encoding="UTF-8"?>
<svg xmlns="http://www.w3.org/2000/svg" width="24" height="24" viewBox="0 0 24 24" fill="none">
  <path d="M9.00006 1.25C6.12474 1.25 3.81006 3.57689 3.81006 6.44C3.81006 9.24337 6.01965 11.526 8.80486 11.6196C8.83592 11.6206 8.86701 11.6197 8.89796 11.6169C8.96515 11.6108 9.03721 11.6115 9.08543 11.6163C9.1186 11.6196 9.15194 11.6207 9.18525 11.6196C11.971 11.5259 14.1784 9.24352 14.1901 6.44313L14.1901 6.44C14.1901 3.57579 11.8643 1.25 9.00006 1.25Z" fill="#5B37D4"></path>
  <path d="M16.41 3.25C16.128 3.25 15.8698 3.40823 15.7418 3.65953C15.6139 3.91042 15.6374 4.21173 15.8025 4.43976L15.8066 4.44566C15.8116 4.45278 15.8202 4.4653 15.8319 4.483C15.8554 4.51842 15.8914 4.57436 15.9357 4.6489C16.0245 4.79833 16.1457 5.02036 16.2675 5.29974C16.5129 5.86252 16.75 6.63338 16.75 7.5C16.75 8.35045 16.4894 9.11087 16.216 9.67108C16.0805 9.94873 15.9455 10.1698 15.8463 10.3189C15.7968 10.3932 15.7566 10.4491 15.7303 10.4845C15.7172 10.5022 15.7075 10.5147 15.702 10.5219L15.6977 10.5273C15.506 10.7635 15.4759 11.0921 15.6216 11.3591C15.7674 11.6264 16.0603 11.779 16.3629 11.7454C16.4014 11.7411 16.432 11.7423 16.447 11.7442C16.4872 11.7492 16.5276 11.751 16.5681 11.7495C18.8389 11.6645 20.66 9.79545 20.66 7.5C20.66 5.15718 18.7656 3.25 16.41 3.25Z" fill="#5B37D4"></path>
  <path d="M9.17223 12.4375C11.1004 12.4375 13.0667 12.9214 14.5863 13.9363C15.9522 14.8454 16.7347 16.1198 16.7347 17.4912C16.7347 18.8626 15.9523 20.1393 14.5869 21.0532C13.0627 22.0731 11.0938 22.56 9.16473 22.56C7.23596 22.56 5.26752 22.0733 3.74341 21.0538C2.37738 20.1447 1.59473 18.8703 1.59473 17.4988C1.59473 16.1274 2.37717 14.8507 3.74251 13.9368L3.74527 13.9349C5.2737 12.9215 7.24379 12.4375 9.17223 12.4375Z" fill="#5B37D4"></path>
  <path d="M18.535 13.2683C18.2687 13.2084 17.991 13.2977 17.8096 13.5016C17.6283 13.7055 17.5721 13.9921 17.6628 14.2494L17.6637 14.2521L17.6682 14.2649L17.6865 14.3188C17.7026 14.3668 17.726 14.4377 17.7543 14.5269C17.811 14.7059 17.8866 14.9565 17.9618 15.2421C18.1172 15.8318 18.2523 16.502 18.25 16.9966C18.2477 17.4922 18.106 18.1625 17.9446 18.7518C17.8665 19.0373 17.7883 19.2877 17.7297 19.4664C17.7005 19.5556 17.6763 19.6265 17.6597 19.6743L17.6408 19.7281L17.6362 19.741L17.6352 19.7439C17.5423 19.9995 17.5951 20.2854 17.7732 20.491C17.9513 20.6966 18.2267 20.7897 18.4931 20.7342C19.3054 20.565 20.092 20.2344 20.7534 19.7275C21.694 19.0207 22.2201 18.0357 22.2201 16.995C22.2201 15.954 21.6937 14.9688 20.7526 14.2619C20.0991 13.7636 19.3244 13.4462 18.535 13.2683Z" fill="#5B37D4"></path>
</svg>
